<svg width="35" height="34" viewBox="0 0 35 34" fill="none" xmlns="http://www.w3.org/2000/svg">
<g opacity="0.300003">
<g opacity="0.300003">
<path opacity="0.300003" d="M35 31.8232C35 32.3793 27.165 32.8301 17.5 32.8301C7.83502 32.8301 0 32.3793 0 31.8232C0 31.2671 7.83502 30.8163 17.5 30.8163C27.165 30.8163 35 31.2671 35 31.8232Z" fill="#000072"/>
</g>
</g>
<path d="M32.2299 30.563C31.5354 31.2852 30.5166 31.6914 29.4527 31.6914H5.54576C4.48188 31.6914 3.46302 31.2852 2.76853 30.563C2.38485 30.1638 2.1012 29.7191 1.91043 29.2642C1.90971 29.2642 1.90971 29.2642 1.90971 29.2636C1.30954 27.836 1.61534 26.3039 2.57276 25.7528C4.18037 24.8263 5.42001 25.9585 5.42001 25.9585C5.55719 25.6695 5.74296 25.419 5.95088 25.2044C6.73396 24.3932 7.83142 24.0843 7.83142 24.0843C7.23482 21.0157 8.56664 18.2355 8.56664 18.2355C8.56664 18.2355 11.8483 20.4595 17.4992 20.4595C23.1501 20.4595 26.4318 18.2355 26.4318 18.2355C26.4318 18.2355 27.7636 21.0157 27.167 24.0843C27.167 24.0843 28.924 24.579 29.5784 25.9585C29.5784 25.9585 30.8181 24.8263 32.4257 25.7528C33.6882 26.4801 33.8175 28.9131 32.2299 30.563Z" fill="#B11313"/>
<g opacity="0.300003">
<g opacity="0.300003">
<path opacity="0.300003" d="M6.37696 28.7871C6.59845 26.8642 5.42383 26.0344 5.42383 26.0344C5.56101 25.7454 5.74678 25.4949 5.9547 25.2802C7.77665 27.2345 6.37696 28.7871 6.37696 28.7871Z" fill="#000072"/>
</g>
</g>
<g opacity="0.300003">
<g opacity="0.300003">
<path opacity="0.300003" d="M28.6347 28.7871C28.4132 26.8642 29.5878 26.0344 29.5878 26.0344C29.4506 25.7454 29.2649 25.4949 29.057 25.2802C27.235 27.2345 28.6347 28.7871 28.6347 28.7871Z" fill="#000072"/>
</g>
</g>
<g opacity="0.300003">
<g opacity="0.300003">
<path opacity="0.300003" d="M28.8213 30.4016C28.651 30.3636 28.4755 30.3505 28.3012 30.3677C28.0527 30.3921 27.6252 30.4301 26.9982 30.4722C26.0545 30.5357 25.2303 29.8997 25.1659 29.053C25.1382 28.6892 25.1989 28.4068 25.2209 28.3194C24.9745 29.2642 24.5194 30.1346 24.242 30.6119C22.8335 30.6646 21.0495 30.7074 18.8434 30.72C18.7244 26.8972 21.2007 23.3127 21.2007 23.3127C17.4065 26.0347 13.8108 23.3127 13.8108 23.3127C16.3144 27.2979 16.1841 30.554 16.1841 30.554L16.6057 30.7221C14.1966 30.713 12.2699 30.668 10.7695 30.612C10.492 30.1346 10.037 29.2642 9.79052 28.3194C9.81339 28.4103 9.87813 28.7122 9.84174 29.0972C9.76344 29.9258 8.93854 30.5345 8.0139 30.4723C7.3865 30.4301 6.95884 30.3922 6.71028 30.3677C6.53589 30.3505 6.36039 30.3636 6.19016 30.4016C3.46996 31.0089 1.96259 29.3938 1.91406 29.3404C2.10483 29.7953 2.38848 30.24 2.77217 30.6392C3.46665 31.3613 4.48552 31.7676 5.5494 31.7676H17.5057H29.462C30.5259 31.7676 31.5448 31.3613 32.2393 30.6392C32.6229 30.24 32.9066 29.7953 33.0974 29.3404C33.0488 29.3938 31.5415 31.0089 28.8213 30.4016Z" fill="#000072"/>
</g>
</g>
<g opacity="0.300003">
<g opacity="0.300003">
<path opacity="0.300003" d="M9.78496 28.3184C9.78032 28.2997 9.77734 28.2895 9.77734 28.2895C9.77979 28.2992 9.78247 28.3087 9.78496 28.3184Z" fill="#000072"/>
</g>
</g>
<g opacity="0.300003">
<g opacity="0.300003">
<path opacity="0.300003" d="M25.2207 28.3184C25.2232 28.3087 25.2259 28.2992 25.2283 28.2895C25.2283 28.2895 25.2254 28.2997 25.2207 28.3184Z" fill="#000072"/>
</g>
</g>
<path d="M17.4962 31.544H29.4526C30.4556 31.544 31.3995 31.1609 32.0424 30.4928C32.873 29.6296 33.2825 28.4344 33.1113 27.3734C33.011 26.7523 32.7124 26.2569 32.2919 26.0145C30.8701 25.1948 29.7997 26.1483 29.7548 26.1893C29.6969 26.2422 29.6134 26.2659 29.532 26.2519C29.4508 26.2381 29.3825 26.1888 29.3502 26.1206C28.7473 24.8497 27.109 24.376 27.0925 24.3714C26.974 24.338 26.9013 24.231 26.9227 24.1213C27.3971 21.6827 26.6134 19.4011 26.3133 18.6535C25.4148 19.1803 22.3231 20.7567 17.4991 20.7567C12.6751 20.7567 9.58332 19.1803 8.68486 18.6535C8.38476 19.4011 7.60102 21.6827 8.07548 24.1213C8.09683 24.231 8.0242 24.338 7.90562 24.3714C7.88943 24.376 6.24844 24.8547 5.64799 26.1206C5.61561 26.1888 5.54738 26.2381 5.46613 26.2519C5.3849 26.2658 5.30125 26.2422 5.24333 26.1893C5.19861 26.149 4.11895 25.2 2.70625 26.0145C2.28579 26.2569 1.98712 26.7523 1.88689 27.3734C1.71567 28.4344 2.1252 29.6297 2.95573 30.4928C3.59864 31.1609 4.54259 31.544 5.54556 31.544H17.4962ZM29.4526 31.9883H5.54556C4.39843 31.9883 3.31776 31.549 2.58069 30.783C1.65915 29.8253 1.20543 28.4944 1.39662 27.3098C1.51918 26.5502 1.88916 25.9574 2.43839 25.6408C3.74551 24.8873 4.8484 25.3794 5.33306 25.6859C5.94781 24.6765 7.08841 24.1814 7.55392 24.0142C7.03552 20.9912 8.28436 18.3362 8.33884 18.2225C8.36888 18.1597 8.42941 18.1129 8.50299 18.0955C8.57667 18.078 8.65507 18.0918 8.71577 18.133C8.74786 18.1546 12.0067 20.3124 17.4991 20.3124C22.9915 20.3124 26.2503 18.1546 26.2826 18.1328C26.3434 18.0918 26.4219 18.078 26.4953 18.0955C26.5688 18.1131 26.6293 18.1598 26.6593 18.2225C26.7138 18.3362 27.9626 20.9912 27.4442 24.0142C27.9098 24.1814 29.0504 24.6765 29.6651 25.6859C30.1497 25.3794 31.2525 24.8871 32.5598 25.6408C33.109 25.9574 33.479 26.5501 33.6016 27.3098C33.7928 28.4944 33.339 29.8253 32.4175 30.783C31.6804 31.549 30.5997 31.9883 29.4526 31.9883" fill="#000072"/>
<path d="M5.55991 25.8531C5.58709 25.8697 5.59975 25.8789 5.61847 25.8913C5.63623 25.9031 5.65055 25.9143 5.66676 25.926C5.69894 25.9493 5.72613 25.9739 5.75528 25.9981C5.78512 26.0219 5.8097 26.0482 5.83649 26.0736C5.86347 26.0989 5.88879 26.125 5.91254 26.1519C6.01123 26.258 6.09421 26.3723 6.1682 26.4904C6.3165 26.7265 6.41503 26.9811 6.48352 27.2374C6.5503 27.4949 6.57496 27.7562 6.57501 28.0143C6.57552 28.1432 6.55947 28.2718 6.54969 28.3989C6.52834 28.5259 6.50502 28.6517 6.47538 28.7759C6.46972 28.7995 6.44373 28.8146 6.41732 28.8096C6.39726 28.8057 6.38274 28.7913 6.37938 28.7743L6.37881 28.7712C6.35454 28.6465 6.33942 28.5236 6.32118 28.4018L6.28568 28.2205C6.27269 28.1606 6.26785 28.1 6.25007 28.0412C6.21679 27.9235 6.19895 27.8045 6.15697 27.6908C6.13868 27.6335 6.12433 27.5755 6.10441 27.5192L6.04054 27.352C5.95242 27.1314 5.84478 26.9204 5.71508 26.7254C5.68132 26.6776 5.64971 26.6282 5.61301 26.5829L5.55997 26.5134L5.50308 26.4474C5.46701 26.4019 5.42517 26.3619 5.38602 26.3208C5.36582 26.3013 5.34579 26.2801 5.32541 26.2628C5.31562 26.2539 5.30516 26.2433 5.29593 26.2356C5.28769 26.2284 5.27418 26.2171 5.27327 26.2154L5.21981 26.1191C5.16241 26.0157 5.20932 25.8902 5.32463 25.8387C5.40274 25.8038 5.49248 25.8121 5.55991 25.8531Z" fill="#000072"/>
<path d="M29.7139 26.2154C29.7129 26.2171 29.6994 26.2284 29.6912 26.2356C29.682 26.2433 29.6715 26.2539 29.6617 26.2628C29.6413 26.2802 29.6213 26.3013 29.6011 26.3208C29.5619 26.3619 29.5201 26.4019 29.484 26.4474L29.4272 26.5134L29.3741 26.5829C29.3374 26.6282 29.3058 26.6776 29.272 26.7254C29.1423 26.9205 29.0347 27.1314 28.9466 27.352L28.8827 27.5192C28.8628 27.5755 28.8485 27.6335 28.8302 27.6908C28.7882 27.8045 28.7703 27.9235 28.7371 28.0412C28.7193 28.1 28.7144 28.1606 28.7015 28.2205L28.666 28.4018C28.6477 28.5236 28.6326 28.6465 28.6083 28.7712L28.6077 28.7742C28.6031 28.7981 28.5778 28.8141 28.5512 28.8099C28.5309 28.8067 28.5158 28.7928 28.5117 28.7759C28.4821 28.6518 28.4588 28.5259 28.4374 28.3989C28.4277 28.2718 28.4116 28.1432 28.4121 28.0143C28.4122 27.7562 28.4368 27.4949 28.5036 27.2375C28.5721 26.9811 28.6706 26.7265 28.8189 26.4904C28.8929 26.3723 28.9759 26.258 29.0746 26.1519C29.0983 26.125 29.1237 26.0989 29.1506 26.0736C29.1774 26.0482 29.202 26.0219 29.2318 25.9981C29.261 25.9739 29.2882 25.9493 29.3204 25.926C29.3366 25.9143 29.3509 25.9031 29.3686 25.8913C29.3874 25.8789 29.4 25.8697 29.4272 25.8531C29.5337 25.788 29.6787 25.8127 29.7513 25.9082C29.8004 25.9728 29.8036 26.0534 29.7675 26.1189L29.7139 26.2154Z" fill="#000072"/>
<path d="M8.07896 24.1339L8.09914 24.3114L8.12436 24.51C8.13323 24.5776 8.14505 24.6455 8.15157 24.7167C8.15884 24.7877 8.16314 24.8614 8.15913 24.9409L8.15911 24.9412C8.15848 24.9538 8.14668 24.9634 8.13272 24.9629C8.12772 24.9626 8.12313 24.9612 8.11933 24.9587C8.04655 24.9128 7.98394 24.8601 7.92975 24.8026C7.87425 24.7456 7.82883 24.6833 7.78454 24.6195C7.74124 24.5553 7.70181 24.4885 7.6675 24.4186C7.65136 24.3833 7.63462 24.3478 7.62163 24.3104C7.61462 24.2919 7.60829 24.2728 7.60263 24.2532C7.5965 24.2321 7.5924 24.2166 7.58709 24.1867C7.5656 24.0655 7.65777 23.9515 7.79295 23.9323C7.92815 23.913 8.05516 23.9957 8.07662 24.1169C8.07732 24.1208 8.07788 24.1247 8.07835 24.1285L8.07896 24.1339Z" fill="#000072"/>
<path d="M27.4173 24.1867C27.412 24.2166 27.4079 24.2321 27.4018 24.2532C27.3961 24.2728 27.3898 24.2919 27.3828 24.3104C27.3698 24.3478 27.3531 24.3833 27.3369 24.4186C27.3026 24.4885 27.2632 24.5553 27.2199 24.6195C27.1756 24.6833 27.1302 24.7456 27.0747 24.8026C27.0205 24.8601 26.9579 24.9128 26.8851 24.9587C26.8737 24.966 26.8579 24.9635 26.8499 24.9533C26.847 24.9496 26.8455 24.9454 26.8453 24.9412L26.8453 24.9409C26.8413 24.8614 26.8456 24.7878 26.8529 24.7167C26.8594 24.6455 26.8712 24.5776 26.8801 24.51L26.9053 24.3114L26.9255 24.1339L26.926 24.1293C26.9399 24.0071 27.0615 23.9182 27.1977 23.9307C27.3339 23.9431 27.433 24.0522 27.4191 24.1743C27.4187 24.1782 27.418 24.1828 27.4173 24.1867Z" fill="#000072"/>
<path d="M9.27749 26.3362C9.27749 26.3362 8.1436 25.5476 7.82974 24.1608C7.82974 24.1608 7.17741 23.8652 6.72656 24.6652C6.72656 24.6652 7.24664 27.1075 9.77736 28.291C9.77736 28.291 9.41167 27.0337 9.27749 26.3362" fill="#0096F2"/>
<path d="M6.98826 24.6975C7.0904 25.0704 7.6404 26.7734 9.39091 27.8279C9.28015 27.4248 9.13333 26.8678 9.04915 26.4555C8.78656 26.2515 7.93193 25.5132 7.61794 24.3327C7.47535 24.3107 7.21865 24.3364 6.98826 24.6975ZM9.77698 28.5137C9.73787 28.5137 9.69858 28.5054 9.66247 28.4885C7.05549 27.2693 6.50507 24.8114 6.48291 24.7074C6.47265 24.6592 6.48047 24.6093 6.50517 24.5655C6.78678 24.0658 7.15502 23.9242 7.41434 23.8934C7.70128 23.859 7.91741 23.9524 7.9411 23.9631C8.00878 23.9938 8.05707 24.0506 8.07214 24.1172C8.36278 25.4014 9.41867 26.154 9.42929 26.1614C9.47775 26.1954 9.51079 26.2446 9.52122 26.299C9.65208 26.9792 10.0131 28.223 10.0167 28.2355C10.0414 28.3204 10.0079 28.4105 9.93132 28.4653C9.88655 28.4973 9.83195 28.5137 9.77698 28.5137" fill="#000072"/>
<path d="M25.7264 26.3362C25.7264 26.3362 26.8603 25.5476 27.1742 24.1608C27.1742 24.1608 27.8265 23.8652 28.2774 24.6652C28.2774 24.6652 27.7573 27.1075 25.2266 28.291C25.2266 28.291 25.5923 27.0337 25.7264 26.3362" fill="#0096F2"/>
<path d="M25.9521 26.4555C25.8679 26.8679 25.7211 27.4248 25.6103 27.8279C27.3608 26.7735 27.9108 25.0707 28.013 24.6975C27.8735 24.4782 27.7085 24.3559 27.5218 24.3338C27.4695 24.3275 27.4215 24.3301 27.3825 24.3357C27.0679 25.5145 26.2145 26.2516 25.9521 26.4555ZM25.2243 28.5137C25.1693 28.5137 25.1147 28.4973 25.07 28.4653C24.9933 28.4105 24.9599 28.3204 24.9846 28.2355C24.9882 28.223 25.3492 26.9792 25.48 26.299C25.4905 26.2444 25.5233 26.1954 25.572 26.1614C25.5826 26.154 26.6385 25.4014 26.9291 24.1172C26.9442 24.0506 26.9925 23.9938 27.0602 23.9632C27.0838 23.9524 27.2999 23.859 27.5869 23.8934C27.8462 23.9242 28.2145 24.0658 28.4961 24.5655C28.5208 24.6093 28.5286 24.6592 28.5184 24.7074C28.4962 24.8114 27.9458 27.2693 25.3388 28.4885C25.3027 28.5053 25.2634 28.5137 25.2243 28.5137" fill="#000072"/>
<path d="M12.6953 20.6621C12.6953 20.6621 13.121 21.7444 12.9985 23.3234L14.4013 24.418C14.4013 24.418 14.7678 22.5103 14.1435 20.9259L12.6953 20.6621Z" fill="#0096F2"/>
<path d="M13.2491 23.2264L14.2083 23.9749C14.2732 23.3661 14.3286 22.1726 13.95 21.1167L13.039 20.9507C13.1568 21.3901 13.3139 22.1983 13.2491 23.2264ZM14.3969 24.6387C14.3381 24.6387 14.2801 24.6198 14.2343 24.5841L12.8316 23.4896C12.773 23.4438 12.7417 23.3761 12.7471 23.3066C12.8642 21.7977 12.4614 20.7448 12.4573 20.7344C12.4278 20.659 12.4458 20.575 12.5044 20.5148C12.563 20.4547 12.6532 20.4275 12.7403 20.443L14.1884 20.7068C14.2737 20.7223 14.3437 20.7769 14.3726 20.8504C15.0112 22.4709 14.6564 24.3741 14.641 24.4543C14.6258 24.5333 14.5643 24.5989 14.48 24.6258C14.4529 24.6344 14.4248 24.6387 14.3969 24.6387" fill="#000072"/>
<path d="M22.307 20.6621C22.307 20.6621 21.8813 21.7444 22.0038 23.3234L20.6011 24.418C20.6011 24.418 20.2345 22.5103 20.8588 20.9259L22.307 20.6621Z" fill="#0096F2"/>
<path d="M21.0492 21.1167C20.6699 22.1745 20.7254 23.367 20.7906 23.9751L21.7501 23.2264C21.6853 22.1983 21.8424 21.3901 21.9601 20.9507L21.0492 21.1167ZM20.6023 24.6387C20.5744 24.6387 20.5463 24.6344 20.5192 24.6258C20.4349 24.5989 20.3734 24.5333 20.3582 24.4543C20.3428 24.3741 19.988 22.4709 20.6265 20.8504C20.6555 20.7769 20.7255 20.7223 20.8108 20.7068L22.2589 20.443C22.3463 20.4269 22.4366 20.4546 22.4951 20.5149C22.5536 20.5752 22.5714 20.6591 22.5419 20.7345C22.5354 20.7511 22.1354 21.8022 22.2521 23.3066C22.2575 23.3761 22.2262 23.4438 22.1676 23.4896L20.7649 24.5841C20.7191 24.6198 20.6611 24.6387 20.6023 24.6387" fill="#000072"/>
<path d="M16.1011 31.0727C15.7481 32.6272 13.7361 33.3384 12.3221 32.3856C11.2154 31.6404 10 29.936 9.24908 26.1984C9.17763 25.8402 9.10975 25.4628 9.04688 25.0662L9.52487 24.6599L12.6936 21.9649C12.6936 21.9649 15.8153 26.299 16.1611 29.6213V29.622C16.2154 30.1365 16.2025 30.6267 16.1011 31.0727Z" fill="#B11313"/>
<g opacity="0.300003">
<g opacity="0.300003">
<path opacity="0.300003" d="M16.1002 31.0727C15.7472 32.6272 13.7352 33.3384 12.3212 32.3856C11.2145 31.6404 9.99912 29.936 9.24819 26.1984C8.19145 25.6275 7.82849 24.1595 7.82849 24.1595C7.37264 22.2103 7.89851 20.4136 7.89851 20.4136C7.79844 22.7862 8.84849 23.9179 9.28158 24.2812C9.40226 24.3825 9.4866 24.513 9.52335 24.6575C9.52357 24.6583 9.52377 24.6591 9.52398 24.6599C10.2978 27.7305 11.5939 31.4712 13.4744 31.7391C15.2899 31.9973 16.0723 29.8764 16.1602 29.622C16.2145 30.1365 16.2016 30.6267 16.1002 31.0727Z" fill="#000072"/>
</g>
</g>
<path d="M12.9664 21.7583C13.3272 22.1107 13.6125 22.5038 13.8712 22.9099C13.9996 23.1134 14.1167 23.3223 14.233 23.5314C14.3494 23.7405 14.4633 23.9508 14.5744 24.1624C15.0191 25.0083 15.424 25.8734 15.7603 26.7647C16.097 27.655 16.3681 28.5749 16.4669 29.5326C16.5145 30.0107 16.5174 30.4999 16.4268 30.9897C16.4072 31.1099 16.3785 31.2389 16.3344 31.3632C16.2944 31.4883 16.2377 31.6091 16.1762 31.7274C16.048 31.9622 15.8771 32.1786 15.6733 32.3659C15.2616 32.7366 14.7175 32.9866 14.1399 33.0601C13.8518 33.1005 13.5559 33.0917 13.2688 33.0461C12.9819 32.9972 12.7049 32.9048 12.4516 32.7776C12.3277 32.7119 12.203 32.6397 12.0953 32.5601L11.9339 32.4413C11.8793 32.4022 11.8325 32.3569 11.7816 32.315C11.7324 32.2717 11.6801 32.2306 11.6337 32.1853L11.4956 32.0489C11.4002 31.9599 11.3212 31.8611 11.2356 31.7662C10.9049 31.3795 10.6412 30.959 10.4097 30.5302C10.1744 30.1018 9.99451 29.6563 9.82028 29.211C9.6586 28.7623 9.51133 28.3105 9.39018 27.8541C9.3303 27.6259 9.266 27.3984 9.21714 27.1684C9.16681 26.9388 9.10653 26.7106 9.06994 26.479C8.98892 26.0169 8.9509 25.5485 8.99547 25.0734C8.99798 25.0465 9.0243 25.0266 9.05425 25.0288C9.07513 25.0304 9.09225 25.0424 9.09987 25.0586L9.10051 25.06C9.2035 25.2808 9.28141 25.5036 9.34858 25.7275C9.41474 25.9517 9.48329 26.1744 9.53525 26.3998C9.58494 26.6258 9.64317 26.8495 9.69798 27.074C9.75004 27.2993 9.81712 27.5206 9.87969 27.7431C10.0063 28.1876 10.1577 28.6248 10.3219 29.0566C10.498 29.4836 10.6789 29.91 10.9089 30.3112C11.1342 30.714 11.3912 31.1005 11.6932 31.4486C11.7712 31.5333 11.8436 31.6233 11.9289 31.7008L12.0525 31.8212C12.0938 31.8612 12.1398 31.8959 12.1831 31.9336C12.2278 31.9697 12.2692 32.0099 12.3164 32.0427L12.4558 32.1436C12.5483 32.2111 12.6427 32.2634 12.7413 32.3156C12.9404 32.4133 13.1549 32.4829 13.3766 32.5193C13.5986 32.5523 13.827 32.5585 14.0501 32.525C14.4978 32.4657 14.919 32.266 15.2354 31.9786C15.393 31.8341 15.5253 31.6677 15.6253 31.4862C15.6727 31.3943 15.7179 31.301 15.749 31.2029C15.7839 31.1061 15.8063 31.0071 15.8243 30.8979C15.9046 30.4719 15.9054 30.0257 15.8621 29.5808C15.8182 29.1352 15.73 28.6892 15.6158 28.2471C15.5023 27.8046 15.3604 27.3658 15.2025 26.9311C14.886 26.0613 14.4992 25.2084 14.0716 24.3721C13.9648 24.1628 13.8551 23.9547 13.7431 23.7477C13.6315 23.5403 13.5141 23.3356 13.4053 23.1268C13.1856 22.7103 12.9787 22.2869 12.8154 21.8393L12.8149 21.8378C12.7995 21.7955 12.8252 21.75 12.8723 21.7362C12.9069 21.7261 12.9433 21.7358 12.9664 21.7583Z" fill="#000072"/>
<path d="M9.94307 29.0098C9.87637 29.0098 9.80983 28.9858 9.76103 28.9384C9.66829 28.8483 9.67444 28.7079 9.77481 28.6247C9.86671 28.5485 12.0637 26.7561 15.4275 26.5306C15.5635 26.5207 15.6827 26.6132 15.6929 26.7355C15.7031 26.8578 15.6008 26.9645 15.4644 26.9736C12.2791 27.1872 10.1323 28.9334 10.111 28.9509C10.0634 28.9903 10.0031 29.0098 9.94307 29.0098Z" fill="#000072"/>
<path d="M18.9002 31.0746C19.2532 32.6291 21.2652 33.3404 22.6792 32.3875C23.786 31.6423 25.0013 29.9379 25.7522 26.2004C25.8237 25.8422 25.8916 25.4648 25.9544 25.0681L25.4764 24.6619L22.3077 21.9668C22.3077 21.9668 19.186 26.301 18.8402 29.6233V29.6239C18.7859 30.1385 18.7988 30.6287 18.9002 31.0746Z" fill="#B11313"/>
<g opacity="0.300003">
<g opacity="0.300003">
<path opacity="0.300003" d="M18.8924 31.0727C19.2454 32.6272 21.2574 33.3384 22.6714 32.3856C23.7781 31.6404 24.9935 29.936 25.7444 26.1984C26.8012 25.6275 27.1641 24.1595 27.1641 24.1595C27.62 22.2103 27.0941 20.4136 27.0941 20.4136C27.1942 22.7862 26.1441 23.9179 25.711 24.2812C25.5904 24.3825 25.506 24.513 25.4693 24.6575C25.469 24.6583 25.4688 24.6591 25.4686 24.6599C24.6948 27.7305 23.3987 31.4712 21.5182 31.7391C19.7027 31.9973 18.9203 29.8764 18.8324 29.622C18.7781 30.1365 18.791 30.6267 18.8924 31.0727Z" fill="#000072"/>
</g>
</g>
<path d="M22.1861 21.8393C22.0229 22.2869 21.8159 22.7103 21.5962 23.1268C21.4875 23.3356 21.37 23.5403 21.2585 23.7477C21.1464 23.9547 21.0367 24.1628 20.93 24.3721C20.5024 25.2084 20.1156 26.0613 19.7991 26.9311C19.6411 27.3658 19.4993 27.8046 19.3858 28.2471C19.2716 28.6892 19.1834 29.1352 19.1395 29.5808C19.0962 30.0257 19.097 30.4719 19.1773 30.8979C19.1953 31.0071 19.2176 31.1061 19.2526 31.2029C19.2837 31.301 19.3289 31.3943 19.3762 31.4862C19.4763 31.6677 19.6086 31.8341 19.7662 31.9786C20.0826 32.266 20.5038 32.4657 20.9515 32.525C21.1746 32.5585 21.403 32.5523 21.625 32.5192C21.8467 32.4829 22.0612 32.4133 22.2603 32.3156C22.3589 32.2634 22.4533 32.2111 22.5457 32.1436L22.6852 32.0427C22.7324 32.0099 22.7738 31.9697 22.8185 31.9337C22.8618 31.8959 22.9078 31.8612 22.9491 31.8212L23.0727 31.7008C23.158 31.6233 23.2303 31.5333 23.3084 31.4486C23.6104 31.1005 23.8674 30.714 24.0927 30.3112C24.3227 29.91 24.5036 29.4836 24.6797 29.0566C24.8439 28.6248 24.9953 28.1876 25.1219 27.7431C25.1845 27.5206 25.2515 27.2993 25.3036 27.074C25.3584 26.8495 25.4166 26.6258 25.4663 26.3998C25.5183 26.1744 25.5868 25.9517 25.653 25.7275C25.7202 25.5035 25.7981 25.2808 25.9011 25.06L25.9017 25.0586C25.9133 25.0338 25.9452 25.022 25.9729 25.0324C25.9922 25.0397 26.0044 25.0559 26.0061 25.0734C26.0507 25.5485 26.0127 26.0169 25.9316 26.479C25.895 26.7106 25.8347 26.9387 25.7844 27.1684C25.7356 27.3984 25.6713 27.6259 25.6114 27.8541C25.4903 28.3105 25.343 28.7623 25.1813 29.211C25.0071 29.6563 24.8272 30.1018 24.5919 30.5302C24.3604 30.959 24.0966 31.3795 23.766 31.7662C23.6804 31.8611 23.6013 31.9599 23.506 32.0489L23.3678 32.1853C23.3215 32.2306 23.2692 32.2717 23.22 32.315C23.169 32.3569 23.1222 32.4022 23.0677 32.4413L22.9063 32.5601C22.7986 32.6396 22.6739 32.7119 22.5499 32.7776C22.2967 32.9048 22.0196 32.9972 21.7327 33.0461C21.4456 33.0917 21.1498 33.1005 20.8617 33.0601C20.2841 32.9867 19.74 32.7366 19.3282 32.3659C19.1245 32.1786 18.9536 31.9622 18.8253 31.7274C18.7639 31.6091 18.7071 31.4883 18.6671 31.3632C18.623 31.239 18.5944 31.1099 18.5748 30.9897C18.4842 30.4999 18.4871 30.0107 18.5346 29.5326C18.6335 28.5749 18.9046 27.655 19.2412 26.7647C19.5776 25.8734 19.9825 25.0083 20.4272 24.1624C20.5382 23.9508 20.6522 23.7405 20.7685 23.5314C20.8849 23.3222 21.002 23.1134 21.1304 22.9099C21.3891 22.5038 21.6743 22.1107 22.0351 21.7583C22.0687 21.7255 22.1255 21.7233 22.162 21.7534C22.1888 21.7755 22.1973 21.8087 22.1867 21.8378L22.1861 21.8393Z" fill="#000072"/>
<path d="M25.0592 29.0098C24.9991 29.0098 24.9388 28.9903 24.8912 28.9508C24.8699 28.9332 22.7231 27.187 19.5378 26.9735C19.4014 26.9643 19.2991 26.8577 19.3093 26.7354C19.3195 26.613 19.4385 26.5207 19.5747 26.5304C22.9385 26.756 25.1355 28.5483 25.2274 28.6246C25.3278 28.7078 25.334 28.8484 25.2411 28.9384C25.1923 28.9858 25.1258 29.0098 25.0592 29.0098Z" fill="#000072"/>
<path d="M17.5041 19.8194C23.982 19.8194 26.5541 17.2816 26.5541 17.2816C26.5541 17.2816 26.662 17.5001 26.7145 17.8107C26.8015 18.3249 26.558 18.8408 26.0943 19.1532C25.075 19.8399 22.4796 21.1484 17.5007 21.1484C12.5219 21.1484 9.92644 19.8399 8.90717 19.1532C8.44348 18.8408 8.19998 18.3249 8.28696 17.8107C8.33951 17.5001 8.44742 17.2816 8.44742 17.2816C8.44742 17.2816 11.0195 19.8194 17.4974 19.8194" fill="#751313"/>
<g opacity="0.300003">
<g opacity="0.300003">
<path opacity="0.300003" d="M26.6928 17.6917C26.6094 18.0142 26.4008 18.3073 26.0962 18.5124C25.077 19.1992 22.4816 20.5077 17.5027 20.5077C12.5238 20.5077 9.92838 19.1992 8.90911 18.5124C8.60463 18.3073 8.39594 18.0142 8.31258 17.6917C8.30398 17.7296 8.29594 17.7692 8.28892 17.8107C8.20192 18.3249 8.44542 18.8408 8.90911 19.1532C9.92838 19.8399 12.5238 21.1484 17.5027 21.1484C22.4816 21.1484 25.077 19.8399 26.0962 19.1532C26.5599 18.8408 26.8034 18.3249 26.7165 17.8107C26.7094 17.7692 26.7014 17.7296 26.6928 17.6917Z" fill="#000072"/>
</g>
</g>
<path d="M17.5005 21.3711C12.5283 21.3711 9.88896 20.0931 8.75822 19.3313C8.21607 18.966 7.94158 18.3708 8.04188 17.778C8.09871 17.4417 8.21576 17.2022 8.22072 17.1922C8.25466 17.1235 8.32496 17.0748 8.40764 17.0629C8.49018 17.0507 8.57412 17.0771 8.63049 17.1327C8.65534 17.157 11.2231 19.5978 17.4972 19.5978V20.0421C12.1385 20.0421 9.42028 18.3469 8.56505 17.6867C8.5527 17.7354 8.54115 17.7883 8.53162 17.8445C8.45874 18.2755 8.65956 18.7092 9.05577 18.9761C10.1371 19.7046 12.6722 20.9268 17.5005 20.9268C22.3289 20.9268 24.864 19.7046 25.9454 18.9761C26.3415 18.7092 26.5423 18.2756 26.4694 17.8445C26.4599 17.7883 26.4484 17.7354 26.436 17.6867C25.5808 18.3469 22.8625 20.0421 17.5039 20.0421V19.5978C23.7993 19.5978 26.3456 17.1573 26.3706 17.1327C26.4269 17.0771 26.5108 17.0508 26.5934 17.0629C26.6761 17.0748 26.7464 17.1235 26.7803 17.1922C26.7853 17.2022 26.9024 17.4417 26.9592 17.778C27.0595 18.3708 26.785 18.9661 26.2429 19.3313C25.1122 20.0931 22.4728 21.3711 17.5005 21.3711Z" fill="#000072"/>
<path d="M8.45703 19.1606L12.4511 27.3145" stroke="#000072" stroke-width="0.2" stroke-miterlimit="10"/>
<path d="M22.3848 27.3145L26.4636 19.1606" stroke="#000072" stroke-width="0.2" stroke-miterlimit="10"/>
<path fill-rule="evenodd" clip-rule="evenodd" d="M17.2077 22.4895C17.2061 22.5091 17.1928 22.5267 17.1839 22.546C17.1754 22.5647 17.1675 22.5848 17.1601 22.6044C17.1408 22.6556 17.1228 22.706 17.1244 22.7723C17.1903 22.7801 17.2733 22.7743 17.3327 22.7668C17.3652 22.7797 17.3861 22.7998 17.4161 22.8143C17.4104 22.7895 17.4375 22.7848 17.4607 22.7778C17.4504 22.7885 17.4344 22.7957 17.4399 22.8161C17.4534 22.8216 17.4556 22.8069 17.4667 22.8051C17.482 22.8158 17.5014 22.8153 17.5173 22.8051C17.5286 22.8067 17.5256 22.8171 17.5381 22.8179C17.5557 22.8037 17.5305 22.7883 17.5232 22.7778C17.5453 22.7849 17.5704 22.7902 17.5679 22.8124C17.5919 22.8034 17.6212 22.7819 17.6452 22.7668C17.7072 22.7748 17.7865 22.7785 17.8595 22.7741C17.857 22.6631 17.8131 22.5775 17.7702 22.4913C17.7821 22.4904 17.782 22.5 17.7851 22.5041C17.8294 22.5628 17.8688 22.6299 17.9012 22.7011C17.9059 22.7115 17.9138 22.7256 17.919 22.7395C17.9236 22.7516 17.9332 22.7728 17.9309 22.7796C17.9258 22.7946 17.8855 22.7996 17.8773 22.8124C17.8526 22.7945 17.7812 22.7997 17.7137 22.7978C17.6945 22.7973 17.6689 22.794 17.6571 22.796C17.6312 22.8006 17.6198 22.8238 17.6065 22.8362C17.6432 22.8377 17.6722 22.8159 17.7047 22.8143C17.7254 22.8132 17.7556 22.8227 17.7821 22.827C17.8588 22.8395 17.9444 22.85 18.0143 22.8635C18.0185 22.7168 17.957 22.5945 17.8744 22.495C17.9565 22.5644 18.0118 22.6457 18.0529 22.7413C18.06 22.7578 18.0662 22.7735 18.0708 22.7905C18.0773 22.8144 18.0776 22.844 18.0976 22.8617C18.0729 22.8782 18.0432 22.8916 18.0172 22.9073C17.9441 22.8806 17.8028 22.842 17.6839 22.8489C17.6554 22.8506 17.6303 22.8593 17.6095 22.8708C17.6458 22.8797 17.671 22.8806 17.7196 22.8799C17.7317 22.8798 17.7492 22.8767 17.7583 22.8781C17.7686 22.8797 17.7852 22.8928 17.8 22.9018C17.8859 22.9545 17.9628 22.9931 18.0648 23.035C18.0967 23.0481 18.1147 23.0614 18.1511 23.0442C18.1572 23.2173 18.0822 23.3451 17.9904 23.462C17.9797 23.4756 17.973 23.4914 17.9547 23.5021C18.0237 23.4023 18.0767 23.2836 18.0767 23.1445C18.0767 23.1299 18.0813 23.1117 18.0767 23.0989C18.0703 23.0807 18.0235 23.0613 17.9964 23.046C17.9195 23.0025 17.8583 22.9719 17.7732 22.931C17.7565 22.923 17.7423 22.9122 17.7286 22.9091C17.714 22.9059 17.6912 22.9052 17.675 22.9037C17.6547 22.9017 17.6352 22.9012 17.6184 22.9C17.6513 22.9217 17.7035 22.9486 17.7494 22.9693C17.7577 22.9739 17.7665 22.9677 17.7762 22.9675C17.787 23.1709 17.7624 23.3701 17.669 23.5185C17.6467 23.554 17.622 23.5887 17.5827 23.6152C17.7096 23.4748 17.7192 23.2336 17.6928 23.0223C17.7198 23.0079 17.7081 22.996 17.6839 22.9785C17.6575 22.9593 17.6105 22.9313 17.5798 22.9219C17.5776 22.9314 17.5829 22.9407 17.5887 22.9493C17.5945 22.9579 17.6074 22.9653 17.6095 22.973C17.614 22.9893 17.6032 23.0252 17.5976 23.0442C17.5792 23.1071 17.5404 23.1762 17.5053 23.223C17.493 23.222 17.5017 23.2082 17.4934 23.2047C17.4802 23.2051 17.4882 23.2186 17.4815 23.223C17.4406 23.1801 17.4056 23.1092 17.3863 23.0442C17.3794 23.0209 17.3687 22.993 17.3744 22.973C17.3789 22.9571 17.4068 22.9427 17.4042 22.9237C17.3769 22.9276 17.3515 22.9442 17.3298 22.9584C17.3081 22.9726 17.2856 22.9878 17.2703 23.004C17.2721 23.012 17.2848 23.0133 17.2881 23.0204C17.2686 23.2343 17.2692 23.475 17.4012 23.6134C17.3873 23.6122 17.3808 23.6014 17.3744 23.5952C17.2515 23.4747 17.2185 23.289 17.2048 23.0971C17.2017 23.0547 17.1986 23.0132 17.2077 22.9712C17.2103 22.9624 17.2256 22.9754 17.2345 22.9693C17.2815 22.9477 17.3238 22.9231 17.3685 22.9C17.3296 22.9037 17.2873 22.9025 17.2524 22.911C17.2221 22.9183 17.1889 22.9386 17.1601 22.9529C17.0728 22.9965 16.9807 23.0439 16.9072 23.0934C16.8922 23.2562 16.953 23.3874 17.0262 23.5021C16.9206 23.3758 16.8225 23.2354 16.8328 23.0442C16.873 23.0676 16.9343 23.0295 16.9667 23.015C17.0568 22.9745 17.153 22.9224 17.2226 22.8781C17.273 22.8827 17.3322 22.879 17.3744 22.8726C17.3218 22.8315 17.187 22.8522 17.1066 22.8672C17.0526 22.8772 17.0022 22.8917 16.9697 22.9073C16.9388 22.8946 16.9151 22.8775 16.8863 22.8635C16.9074 22.8311 16.9119 22.7765 16.928 22.7395C16.9673 22.6489 17.0287 22.5687 17.1036 22.495C17.1016 22.509 17.0858 22.521 17.0768 22.5333C17.0116 22.6222 16.9686 22.7324 16.9667 22.8617C17.0355 22.8521 17.1176 22.8403 17.1988 22.827C17.2253 22.8227 17.2527 22.8138 17.2732 22.8143C17.3063 22.815 17.3374 22.8359 17.3744 22.8362C17.3656 22.819 17.3488 22.8068 17.3298 22.796C17.2685 22.8003 17.2 22.7936 17.1453 22.7997C17.1397 22.8003 17.1324 22.8023 17.1244 22.8051C17.1251 22.8049 17.1067 22.8124 17.1095 22.8124C17.0972 22.8124 17.0669 22.786 17.053 22.7832C17.0816 22.6712 17.1461 22.5813 17.2077 22.4895Z" fill="#000072"/>
<path fill-rule="evenodd" clip-rule="evenodd" d="M17.502 21.371V24.5215Z" fill="#000072"/>
<path d="M17.502 21.371V24.5215" stroke="#000072" stroke-width="0.2" stroke-miterlimit="10"/>
<path d="M16.4042 21.349C16.4042 21.349 16.5973 23.9298 16.3145 24.3867" stroke="#000072" stroke-width="0.2" stroke-miterlimit="10"/>
<path d="M15.5376 21.3004C15.5376 21.3004 15.973 22.4945 15.3438 24.1074" stroke="#000072" stroke-width="0.2" stroke-miterlimit="10"/>
<path d="M18.5016 21.3702C18.5016 21.3702 18.2997 23.6569 18.5917 24.4355" stroke="#000072" stroke-width="0.2" stroke-miterlimit="10"/>
<path d="M19.531 21.3004C19.531 21.3004 19.0693 23.568 19.7548 24.1074" stroke="#000072" stroke-width="0.2" stroke-miterlimit="10"/>
<path d="M14.6367 21.7539C14.6367 21.7539 15.0715 21.3817 15.6426 21.7539C15.6426 21.7539 15.9403 21.3845 16.4353 21.8047C16.4353 21.8047 16.7052 21.3446 17.4998 21.7539C17.4998 21.7539 17.8352 21.3693 18.4368 21.7539C18.4368 21.7539 18.9095 21.3269 19.4632 21.7327C19.4632 21.7327 19.9568 21.2508 20.3842 21.6812" stroke="#000072" stroke-width="0.2" stroke-miterlimit="10"/>
<path d="M17.4377 22.3449C17.4221 22.335 17.4067 22.3257 17.3914 22.3169C16.8502 22.0058 16.4575 22.3535 16.4575 22.3535C16.056 21.9798 15.6837 22.3535 15.6837 22.3535C15.0596 21.7006 14.7227 22.3535 14.7227 22.3535" stroke="#000072" stroke-width="0.2" stroke-miterlimit="10"/>
<path d="M17.4219 22.3515C17.4219 22.3515 17.9152 21.9967 18.4342 22.3515C18.4342 22.3515 18.9384 21.9124 19.3799 22.3711C19.3799 22.3711 20.0352 21.9188 20.2796 22.362" stroke="#000072" stroke-width="0.2" stroke-miterlimit="10"/>
<path d="M14.7227 23.4431C14.7227 23.4431 15.1231 22.8515 15.5445 23.4933C15.5445 23.4933 16.3002 23.0251 16.461 23.679C16.461 23.679 17.0868 23.3937 17.5242 23.8633C17.5242 23.8633 17.9876 23.3772 18.5244 23.7479C18.5244 23.7479 18.8828 23.0045 19.4894 23.5781C19.4894 23.5781 19.8631 22.9582 20.2798 23.3119" stroke="#000072" stroke-width="0.2" stroke-miterlimit="10"/>
<path d="M14.6836 23.7975C14.6836 23.7975 15.205 23.3232 15.4331 23.864C15.4331 23.864 16.1841 23.5594 16.3938 24.1072C16.3938 24.1072 17.1699 23.7421 17.493 24.3262C17.493 24.3262 17.9522 23.9381 18.5043 24.2017C18.5043 24.2017 19.0116 23.5173 19.5989 23.9213C19.5989 23.9213 20.0168 23.2812 20.2668 23.6797" stroke="#000072" stroke-width="0.2" stroke-miterlimit="10"/>
<path d="M10.1094 28.949C10.1094 28.949 12.4205 26.7702 15.3417 26.9806L16.0057 28.8097C16.0057 28.8097 15.288 31.5255 10.763 30.6104L10.1094 28.949Z" fill="#000072"/>
<path d="M10.1094 28.949C10.1094 28.949 12.4205 26.7702 15.3417 26.9806L16.0057 28.8097C16.0057 28.8097 15.288 31.5255 10.763 30.6104L10.1094 28.949Z" stroke="#000072" stroke-width="0.2" stroke-miterlimit="10"/>
<path d="M18.8906 29.2599L19.5711 26.665L22.778 27.5394L24.6887 28.5122V29.2599L24.24 30.6111C24.24 30.6111 21.0295 31.5589 18.8906 29.2599Z" fill="#000072"/>
<path d="M18.8906 29.2599L19.5711 26.665L22.778 27.5394L24.6887 28.5122V29.2599L24.24 30.6111C24.24 30.6111 21.0295 31.5589 18.8906 29.2599Z" stroke="#000072" stroke-width="0.2" stroke-miterlimit="10"/>
<path d="M2.66016 25.8043L5.12893 31.5449" stroke="#000072" stroke-width="0.2" stroke-miterlimit="10"/>
<path d="M2.01953 26.5293C2.01953 26.5293 2.44611 29.1866 4.30825 31.502" stroke="#000072" stroke-width="0.2" stroke-miterlimit="10"/>
<path d="M3.66211 25.5839C3.66211 25.5839 5.59035 28.5196 5.88827 31.5918" stroke="#000072" stroke-width="0.2" stroke-miterlimit="10"/>
<path d="M4.89844 25.8043C4.89844 25.8043 6.06791 27.895 6.72724 31.5449" stroke="#000072" stroke-width="0.2" stroke-miterlimit="10"/>
<path d="M1.75781 27.7695C1.75781 27.7695 1.76269 27.1816 2.22875 27.4095C2.22875 27.4095 2.40217 26.3813 3.16398 27.0341C3.16398 27.0341 3.19283 25.9902 4.25747 26.6161C4.25747 26.6161 4.56113 25.8501 5.19884 26.5296C5.19884 26.5296 5.51512 26.3728 5.71862 26.7263" stroke="#000072" stroke-width="0.2" stroke-miterlimit="10"/>
<path d="M2.08984 26.8887C2.08984 26.8887 2.25329 26.1283 2.90395 26.3802C2.90395 26.3802 3.03278 25.7552 3.89081 25.963C3.89081 25.963 4.01706 25.5542 5.03519 26.0767" stroke="#000072" stroke-width="0.2" stroke-miterlimit="10"/>
<path d="M1.84766 28.082C1.84766 28.082 1.88358 27.4928 2.38062 27.9028C2.38062 27.9028 2.53723 26.8826 3.40561 27.54C3.40561 27.54 3.42886 26.5411 4.43935 27.1056C4.43935 27.1056 4.81113 26.5478 5.4591 27.0338C5.4591 27.0338 5.57482 26.7435 5.89816 27.0338" stroke="#000072" stroke-width="0.2" stroke-miterlimit="10"/>
<path d="M1.84766 28.5879C1.84766 28.5879 2.04939 28.0213 2.60133 28.5132C2.60133 28.5132 2.93909 27.588 3.66167 28.2141C3.66167 28.2141 3.95277 26.9792 4.83911 27.8273C4.83911 27.8273 4.97696 27.021 5.68191 27.6176C5.68191 27.6176 5.73541 27.1225 6.10706 27.52" stroke="#000072" stroke-width="0.2" stroke-miterlimit="10"/>
<path d="M2.01953 29.0156C2.01953 29.0156 2.20723 28.5489 2.75413 28.8839C2.75413 28.8839 3.34875 28.1473 3.89443 28.6749C3.89443 28.6749 4.48002 27.882 5.03881 28.4846C5.03881 28.4846 5.32945 27.7406 5.90413 28.2585C5.90413 28.2585 6.11708 27.9812 6.2891 28.2211" stroke="#000072" stroke-width="0.2" stroke-miterlimit="10"/>
<path d="M2.21484 29.5645C2.21484 29.5645 2.54541 29.0561 2.96805 29.3597C2.96805 29.3597 3.33838 28.7803 4.14537 29.263C4.14537 29.263 4.52943 28.4786 5.31964 29.0709C5.31964 29.0709 5.6054 28.4035 6.10566 29.0087C6.10566 29.0087 6.10756 28.361 6.45779 28.6744" stroke="#000072" stroke-width="0.2" stroke-miterlimit="10"/>
<path d="M2.46094 30.2051V30.042C2.46094 30.042 2.68239 29.4473 3.21263 29.8352C3.21263 29.8352 3.76012 29.2725 4.33943 29.7067C4.33943 29.7067 4.93807 29.0039 5.47959 29.5642C5.47959 29.5642 5.80565 28.95 6.29002 29.5619" stroke="#000072" stroke-width="0.2" stroke-miterlimit="10"/>
<path d="M2.87305 30.4062C2.87305 30.4062 2.89357 30.0898 3.41886 30.2068C3.41886 30.2068 3.98193 29.8242 4.54178 30.1808C4.54178 30.1808 4.93678 29.5526 5.60713 30.0288C5.60713 30.0288 6.07131 29.5392 6.38893 29.9538" stroke="#000072" stroke-width="0.2" stroke-miterlimit="10"/>
<path d="M3.16406 30.7988C3.16406 30.7988 3.36699 30.522 3.7383 30.7184C3.7383 30.7184 4.2204 30.2989 4.74374 30.648C4.74374 30.648 5.1078 30.1532 5.72025 30.5092C5.72025 30.5092 6.10858 30.058 6.49623 30.404" stroke="#000072" stroke-width="0.2" stroke-miterlimit="10"/>
<path d="M3.56445 31.0801C3.56445 31.0801 3.62814 30.787 3.97644 31.0672C3.97644 31.0672 4.38332 30.8329 4.89775 31.0801C4.89775 31.0801 5.45884 30.7647 5.81216 31.013C5.81216 31.013 6.27152 30.7035 6.57677 30.9989" stroke="#000072" stroke-width="0.2" stroke-miterlimit="10"/>
<path d="M4.1543 31.2856C4.1543 31.2856 4.42488 31.0309 5.03878 31.3359C5.03878 31.3359 5.37574 31.1515 5.68437 31.2165C5.72845 31.2258 5.77197 31.2402 5.81384 31.2609" stroke="#000072" stroke-width="0.2" stroke-miterlimit="10"/>
<path d="M5.85547 31.3379C5.85547 31.3379 6.16762 31.093 6.69787 31.2616" stroke="#000072" stroke-width="0.2" stroke-miterlimit="10"/>
<path d="M6.45913 28.5886C6.36599 28.7784 6.72741 31.7656 6.72741 31.7656H11.2354L11.1394 31.5445L10.1112 29.7856L9.46759 28.1333C8.00916 27.9478 6.57761 24.8849 6.57761 24.8849L5.5625 25.853L5.813 26.3795L6.28825 27.3646L6.45913 28.5886Z" fill="#000072"/>
<path d="M32.1598 25.6654L29.9531 31.5449" stroke="#000072" stroke-width="0.2" stroke-miterlimit="10"/>
<path d="M32.7476 26.3828C32.7476 26.3828 32.3553 30.1347 30.5137 31.6348" stroke="#000072" stroke-width="0.2" stroke-miterlimit="10"/>
<path d="M31.3077 25.629C31.3077 25.629 29.8132 28.848 29.1035 31.5801" stroke="#000072" stroke-width="0.2" stroke-miterlimit="10"/>
<path d="M30.0641 25.9109C30.0641 25.9109 28.9764 27.74 28.4121 31.9199" stroke="#000072" stroke-width="0.2" stroke-miterlimit="10"/>
<path d="M33.111 27.375C33.111 27.375 32.992 26.8549 32.6149 27.205C32.6149 27.205 32.4574 26.2753 31.7137 26.8493C31.7137 26.8493 31.5037 26.057 30.851 26.666C30.851 26.666 30.343 25.9087 29.7103 26.666C29.7103 26.666 29.5795 26.4743 29.2734 26.7264" stroke="#000072" stroke-width="0.2" stroke-miterlimit="10"/>
<path d="M33.1494 27.9004C33.1494 27.9004 33.0097 27.3901 32.4953 27.7688C32.4953 27.7688 32.1962 27.1293 31.4547 27.5395C31.4547 27.5395 31.2808 26.8918 30.5101 27.3137C30.5101 27.3137 30.2824 26.8206 29.5148 27.1709C29.5148 27.1709 29.3352 26.8591 29.0137 27.1985" stroke="#000072" stroke-width="0.2" stroke-miterlimit="10"/>
<path d="M33.1464 28.5137C33.1464 28.5137 32.8526 27.9641 32.3508 28.3201C32.3508 28.3201 31.8817 27.7242 31.2039 28.2001C31.2039 28.2001 30.9476 27.6192 30.2959 28.0158C30.2959 28.0158 29.9624 27.3753 29.2705 27.8279C29.2705 27.8279 29.1436 27.4902 28.6406 27.7701" stroke="#000072" stroke-width="0.2" stroke-miterlimit="10"/>
<path d="M33.0269 29.0098C33.0269 29.0098 32.8538 28.4664 32.1687 28.9171C32.1687 28.9171 31.7019 28.2196 31.0048 28.736C31.0048 28.736 30.7035 28.0253 30.0647 28.6059C30.0647 28.6059 29.8632 28.0277 29.1026 28.467C29.1026 28.467 28.9912 28.0146 28.6666 28.4028C28.3419 28.791 28.5808 28.3956 28.5808 28.3956" stroke="#000072" stroke-width="0.2" stroke-miterlimit="10"/>
<path d="M32.8431 29.5488C32.8431 29.5488 32.5952 28.9422 31.9843 29.4185C31.9843 29.4185 31.602 28.9232 30.817 29.236C30.817 29.236 30.3425 28.725 29.7923 29.2358C29.7923 29.2358 29.4176 28.7163 28.9256 29.149C28.9256 29.149 28.734 28.2966 28.2715 29.1204" stroke="#000072" stroke-width="0.2" stroke-miterlimit="10"/>
<path d="M32.471 29.9688C32.471 29.9688 32.4559 29.4146 31.7967 29.8603C31.7967 29.8603 31.3624 29.3167 30.5977 29.8278C30.5977 29.8278 30.1843 29.2684 29.6252 29.8596C29.6252 29.8596 29.2443 29.3174 28.7718 29.8423C28.7718 29.8423 28.7569 28.9385 28.1191 29.647" stroke="#000072" stroke-width="0.2" stroke-miterlimit="10"/>
<path d="M32.156 30.4375C32.156 30.4375 32.0579 30.1351 31.5314 30.3687C31.5314 30.3687 30.9595 29.9836 30.3943 30.3588C30.3943 30.3588 30.068 29.9474 29.4709 30.316C29.4709 30.316 28.9795 29.9319 28.6418 30.3001C28.6418 30.3001 28.6716 29.6128 27.9551 30.1405" stroke="#000072" stroke-width="0.2" stroke-miterlimit="10"/>
<path d="M31.7769 30.805C31.7769 30.805 31.6961 30.4636 31.2588 30.805C31.2588 30.805 30.7622 30.5056 30.2039 30.8672C30.2039 30.8672 29.6545 30.5551 29.301 30.8672C29.301 30.8672 28.9222 30.4068 28.5215 30.8672C28.5215 30.8672 28.3988 30.2588 28.0117 30.7602" stroke="#000072" stroke-width="0.2" stroke-miterlimit="10"/>
<path d="M31.4446 30.9808C31.4446 30.9808 31.2633 30.832 31.0814 31.0474C31.0814 31.0474 30.3554 30.8561 30.0657 31.2402C30.0657 31.2402 29.7539 30.9355 29.1954 31.2402C29.1954 31.2402 28.9225 30.7902 28.5133 31.2402C28.5133 31.2402 28.2878 30.6419 27.8652 31.2402" stroke="#000072" stroke-width="0.2" stroke-miterlimit="10"/>
<path d="M25.683 28.0854L27.1318 26.8332L28.2714 25.0997L28.4125 24.715L29.369 25.6654L29.4441 26.1376L28.9256 26.6654L28.6426 27.314L28.522 28.0854V28.4997L28.5122 28.7762C28.5122 28.7762 28.0174 30.8678 28.2714 31.6909L23.8588 31.7891L23.7148 31.5449L24.4356 30.2895L25.2267 28.6239L25.683 28.0854Z" fill="#000072"/>
<path d="M24.8752 19.965C24.8752 19.965 21.3438 26.1104 20.9473 27.8262" stroke="#000072" stroke-width="0.2" stroke-miterlimit="10"/>
<path d="M23.7459 20.4375C23.7459 20.4375 20.2939 26.6339 20.5992 27.1582" stroke="#000072" stroke-width="0.2" stroke-miterlimit="10"/>
<path d="M27.0444 20.0993C27.0444 20.0993 24.4199 26.5099 23.1992 28.0078" stroke="#000072" stroke-width="0.2" stroke-miterlimit="10"/>
<path d="M22.3105 21.3716C22.3105 21.3716 23.1092 20.6137 23.3066 21.2463C23.3066 21.2463 23.8428 20.5383 24.2797 21.0233C24.2797 21.0233 25.3203 20.2719 25.4869 21.1125C25.4869 21.1125 26.433 20.4441 26.5118 21.3716C26.5118 21.3716 26.8553 21.2844 26.847 22.0637C26.847 22.0637 27.1556 22.6691 27.066 22.9043" stroke="#000072" stroke-width="0.2" stroke-miterlimit="10"/>
<path d="M23.623 20.662C23.623 20.662 24.2484 20.1555 24.6053 20.4381C24.6053 20.4381 25.4468 19.6733 25.8855 20.3096C25.8855 20.3096 26.7176 20.1777 26.7323 20.8447C26.7323 20.8447 27.0692 21.2237 27.043 21.3714C27.043 21.3714 26.6573 23.6952 25.9197 25.0761C25.9197 25.0761 24.9417 28.0853 23.9458 28.3262" stroke="#000072" stroke-width="0.2" stroke-miterlimit="10"/>
<path d="M22.1875 21.8386C22.1875 21.8386 22.6875 21.2789 22.984 21.8386C22.984 21.8386 23.7171 21.2048 23.7468 21.8386C23.7468 21.8386 24.9041 21.3368 25.0569 21.9664C25.0569 21.9664 25.9114 21.4202 26.0841 22.3541C26.0841 22.3541 26.9055 22.0786 26.645 23.0289C26.645 23.0289 27.1007 22.9219 27.0148 23.5195" stroke="#000072" stroke-width="0.2" stroke-miterlimit="10"/>
<path d="M21.7363 22.5364C21.7363 22.5364 22.4629 21.9277 22.5543 22.644C22.5543 22.644 23.2578 22.0297 23.2963 22.8062C23.2963 22.8062 24.5533 22.2275 24.5246 23.027C24.5246 23.027 25.4026 22.776 25.5602 23.5285C25.5602 23.5285 26.3187 23.3016 26.3976 23.9365C26.3976 23.9365 26.957 23.9053 26.9046 24.3105" stroke="#000072" stroke-width="0.2" stroke-miterlimit="10"/>
<path d="M21.3535 23.3123C21.3535 23.3123 21.9133 22.4741 22.2536 23.3073C22.2536 23.3073 22.7064 22.941 22.9119 23.46C22.9119 23.46 24.0131 23.1305 24.1096 23.8637C24.1096 23.8637 24.8548 23.4438 25.2262 24.1069C25.2262 24.1069 26.0905 23.9789 26.2162 24.4362C26.2162 24.4362 26.6103 24.3261 26.7517 24.7148" stroke="#000072" stroke-width="0.2" stroke-miterlimit="10"/>
<path d="M21.1348 23.7991C21.1348 23.7991 21.6528 23.5562 21.8072 24.1081C21.8072 24.1081 22.3437 23.6871 22.5592 24.1921C22.5592 24.1921 23.4376 23.8908 23.7193 24.5225C23.7193 24.5225 24.6709 24.1988 24.9803 24.7947C24.9803 24.7947 25.6256 24.6408 25.9777 25.0335C25.9777 25.0335 26.4058 24.8893 26.4642 25.2812" stroke="#000072" stroke-width="0.2" stroke-miterlimit="10"/>
<path d="M20.7578 24.4456C20.7578 24.4456 21.476 23.967 21.4748 24.7698C21.4748 24.7698 22.0987 24.3739 22.1857 24.8682C22.1857 24.8682 23.157 24.6157 23.397 25.2795C23.397 25.2795 24.2056 24.751 24.6048 25.5576C24.6048 25.5576 25.4368 25.1581 25.6254 25.8164" stroke="#000072" stroke-width="0.2" stroke-miterlimit="10"/>
<path d="M20.4941 25.2142C20.4941 25.2142 21.0491 24.6774 21.2344 25.2794C21.2344 25.2794 21.7454 24.8917 21.934 25.4422C21.934 25.4422 22.8278 25.2199 23.1297 25.8164C23.1297 25.8164 23.932 25.5076 24.3225 26.1209C24.3225 26.1209 25.0162 25.7244 25.3745 26.3281" stroke="#000072" stroke-width="0.2" stroke-miterlimit="10"/>
<path d="M20.2461 25.7214C20.2461 25.7214 20.8149 25.4058 20.9939 25.8169C20.9939 25.8169 21.4921 25.5082 21.6839 25.967C21.6839 25.967 22.6611 25.7867 22.8127 26.3287C22.8127 26.3287 23.7047 26.0999 24.051 26.6397C24.051 26.6397 24.7287 26.4245 25.1211 26.8514C25.1211 26.8514 25.2799 26.7661 25.2796 27.1582" stroke="#000072" stroke-width="0.2" stroke-miterlimit="10"/>
<path d="M20.0254 26.198C20.0254 26.198 20.6333 25.9185 20.7565 26.2769C20.7565 26.2769 21.4087 26.0425 21.4613 26.4435C21.4613 26.4435 22.5673 26.219 22.633 26.804C22.633 26.804 23.6123 26.541 23.757 27.1576C23.757 27.1576 24.606 26.8444 24.7936 27.539C24.7936 27.539 25.1248 27.3983 25.2207 27.8262" stroke="#000072" stroke-width="0.2" stroke-miterlimit="10"/>
<path d="M9.56836 19.5182C9.56836 19.5182 12.7163 24.1587 13.4519 27.1582" stroke="#000072" stroke-width="0.2" stroke-miterlimit="10"/>
<path d="M11.377 20.4134C11.377 20.4134 13.7287 24.277 14.5095 26.834" stroke="#000072" stroke-width="0.2" stroke-miterlimit="10"/>
<path d="M8.05664 20.2553C8.05664 20.2553 10.7981 27.226 11.6959 27.7695" stroke="#000072" stroke-width="0.2" stroke-miterlimit="10"/>
<path d="M7.94531 21.5565C7.94531 21.5565 10.1626 27.7682 10.824 28.0859" stroke="#000072" stroke-width="0.2" stroke-miterlimit="10"/>
<path d="M8.25586 20.5352C8.25586 20.5352 8.31702 19.806 8.97943 20.2283C8.97943 20.2283 9.24336 19.7059 9.99377 20.1617C9.99377 20.1617 10.193 19.882 10.8269 20.1097" stroke="#000072" stroke-width="0.2" stroke-miterlimit="10"/>
<path d="M8.0957 21.9648C8.0957 21.9648 8.15508 21.4517 8.62251 21.6524C8.62251 21.6524 8.76721 20.9414 9.57162 21.4384C9.57162 21.4384 9.72089 20.6905 10.6088 21.1482C10.6088 21.1482 11.1668 20.4928 11.8095 21.1482C11.8095 21.1482 12.2797 20.7564 12.6231 21.1482" stroke="#000072" stroke-width="0.2" stroke-miterlimit="10"/>
<path d="M7.94531 21.3496C7.94531 21.3496 8.1515 21.0373 8.39919 21.1489C8.39919 21.1489 8.66622 20.4699 9.24289 20.7724C9.24289 20.7724 9.60832 20.2801 10.2678 20.5995C10.2678 20.5995 10.9544 20.316 11.3752 20.4917" stroke="#000072" stroke-width="0.2" stroke-miterlimit="10"/>
<path d="M7.87109 22.9375C7.87109 22.9375 7.95036 22.5922 8.40015 22.7909C8.40015 22.7909 8.46214 22.2689 8.97756 22.5387C8.97756 22.5387 9.10977 21.822 10.0271 22.2658C10.0271 22.2658 10.1197 21.4296 11.0932 21.9646C11.0932 21.9646 11.5214 21.3235 12.1699 21.7858C12.1699 21.7858 12.2422 21.4207 12.7391 21.7312" stroke="#000072" stroke-width="0.2" stroke-miterlimit="10"/>
<path d="M7.94531 23.7461C7.94531 23.7461 8.15051 23.1747 8.67428 23.5199C8.67428 23.5199 8.7826 22.9106 9.32102 23.3137C9.32102 23.3137 9.71992 22.7536 10.3041 23.0292C10.3041 23.0292 10.8297 22.2694 11.5113 22.7048C11.5113 22.7048 12.0061 22.1195 12.5404 22.4651C12.5404 22.4651 12.5594 22.2418 13.0651 22.3545" stroke="#000072" stroke-width="0.2" stroke-miterlimit="10"/>
<path d="M8.0957 24.3105C8.0957 24.3105 8.23669 23.7231 8.90047 24.106C8.90047 24.106 9.2087 23.7042 9.61027 23.9748C9.61027 23.9748 9.95572 23.2952 10.6694 23.6861C10.6694 23.6861 11.1485 23.0673 11.9181 23.4568C11.9181 23.4568 12.2697 22.9401 12.9472 23.2361C12.9472 23.2361 12.8897 22.9325 13.4041 23.1258" stroke="#000072" stroke-width="0.2" stroke-miterlimit="10"/>
<path d="M8.35938 24.8848C8.35938 24.8848 8.51391 24.3692 9.04968 24.628C9.04968 24.628 9.36891 24.0885 9.85382 24.4952C9.85382 24.4952 10.0676 23.8093 10.9748 24.2782C10.9748 24.2782 11.4077 23.6795 12.2052 23.9723C12.2052 23.9723 12.5219 23.4062 13.2358 23.7525C13.2358 23.7525 13.3842 23.4715 13.7447 23.6962" stroke="#000072" stroke-width="0.2" stroke-miterlimit="10"/>
<path d="M8.39648 25.3965C8.39648 25.3965 8.6139 24.7364 9.20778 24.8847C9.20778 24.8847 9.74139 24.6271 10.0104 24.863C10.0104 24.863 10.7775 24.3462 11.1715 24.7143C11.1715 24.7143 11.9642 24.1524 12.4446 24.5103C12.4446 24.5103 12.9859 24.1026 13.5158 24.3866C13.5158 24.3866 13.8062 24.0995 14.1648 24.3108" stroke="#000072" stroke-width="0.2" stroke-miterlimit="10"/>
<path d="M14.5069 25.1007C14.5069 25.1007 13.9548 24.4465 13.8266 25.0619C13.8266 25.0619 12.8841 24.5555 12.7953 25.2811C12.7953 25.2811 11.8694 24.6576 11.5438 25.4722C11.5438 25.4722 10.5971 25.0055 10.3565 25.6626C10.3565 25.6626 9.75268 25.0964 9.65941 25.8181C9.65941 25.8181 9.34418 25.7101 9.28906 25.9902" stroke="#000072" stroke-width="0.2" stroke-miterlimit="10"/>
<path d="M14.7559 25.6615C14.7559 25.6615 14.2454 25.1561 14.1096 25.7291C14.1096 25.7291 13.3592 25.2865 13.0419 25.885C13.0419 25.885 12.2326 25.5183 11.9182 26.1986C11.9182 26.1986 11.0525 25.7659 10.8229 26.5118C10.8229 26.5118 10.2284 26.2961 10.025 26.8346C10.025 26.8346 9.71935 26.762 9.56836 27.1582" stroke="#000072" stroke-width="0.2" stroke-miterlimit="10"/>
<path d="M14.8762 26.0946C14.8762 26.0946 14.4909 25.4704 14.311 26.2476C14.311 26.2476 13.8329 25.981 13.2731 26.5287C13.2731 26.5287 12.5571 26.3088 12.164 26.7338C12.164 26.7338 11.5969 26.5939 11.1854 26.967C11.1628 26.9875 11.1407 27.0095 11.1191 27.0332" stroke="#000072" stroke-width="0.2" stroke-miterlimit="10"/>
<path d="M11.1389 27.0098C11.1389 27.0098 10.61 26.9668 10.3352 27.4089C10.3352 27.4089 9.9536 27.4235 9.7774 27.8268C9.6012 28.2301 9.69472 27.769 9.69472 27.769" stroke="#000072" stroke-width="0.2" stroke-miterlimit="10"/>
<path fill-rule="evenodd" clip-rule="evenodd" d="M17.4532 3.12246C23.5281 3.12246 28.2013 8.79269 28.2013 13.5273C28.2013 18.2621 19.6357 20.1754 17.4532 20.2687C15.2706 20.362 6.25977 18.1232 6.25977 13.3885C6.25977 8.65376 11.3783 3.12246 17.4532 3.12246Z" fill="#FF850B"/>
<path d="M17.4561 3.35314C11.3978 3.35314 6.51939 8.84331 6.51939 13.389C6.51939 14.571 7.11841 15.6825 8.29991 16.6928C10.9316 18.9431 15.7331 20.0415 17.3207 20.0416C17.3643 20.0416 17.4052 20.0408 17.4439 20.0391C18.5941 19.99 21.2439 19.4591 23.5338 18.433C25.5473 17.5307 27.9474 15.9473 27.9474 13.5278C27.9474 8.82259 23.3646 3.35314 17.4561 3.35314ZM17.3272 20.502C15.6242 20.502 10.7161 19.395 7.94559 17.0261C6.65853 15.9255 6.00586 14.7018 6.00586 13.389C6.00586 11.019 7.27205 8.37788 9.39293 6.32395C11.6446 4.14333 14.5835 2.89265 17.4561 2.89265C20.3466 2.89265 23.1332 4.13814 25.3028 6.39969C27.2803 8.46101 28.461 11.1257 28.461 13.5278C28.461 15.6292 26.8365 17.4678 23.7633 18.8449C21.4067 19.901 18.6635 20.448 17.4683 20.4991C17.4242 20.501 17.377 20.502 17.3272 20.502" fill="#000072"/>
<g opacity="0.5">
<g opacity="0.5">
<path opacity="0.5" fill-rule="evenodd" clip-rule="evenodd" d="M17.4528 3.12292C21.1864 3.12292 24.3901 5.26507 26.3052 8.01515C26.3251 8.10402 26.3443 8.19325 26.3612 8.2832C24.6127 5.98471 21.8864 4.46905 18.8672 4.0602C19.0608 4.12578 19.173 4.20367 19.173 4.28728C19.173 4.52098 18.2953 4.71041 17.2127 4.71041C16.1302 4.71041 15.2525 4.52098 15.2525 4.28728C15.2525 4.20367 15.3645 4.12578 15.5583 4.0602C12.5389 4.46914 9.81293 5.98489 8.06445 8.2832L8.07411 8.23475C10.0902 5.37482 13.5768 3.12292 17.4528 3.12292Z" fill="white"/>
</g>
</g>
<path fill-rule="evenodd" clip-rule="evenodd" d="M27.9128 14.9821C26.4022 18.6591 19.3967 20.1856 17.4532 20.2687C15.5296 20.351 8.30351 18.6213 6.61523 14.9687C6.74467 12.9791 7.87178 12.4353 9.95617 13.4076C10.8134 13.8073 11.6853 14.2243 12.3763 13.9068C16.3202 12.094 18.7283 12.4358 21.4278 13.9068C22.6902 14.5948 23.9221 13.5686 24.695 13.2557C27.1567 12.2589 28.2861 12.9561 27.9128 14.9821Z" fill="white"/>
<g opacity="0.300003">
<g opacity="0.300003">
<path opacity="0.300003" fill-rule="evenodd" clip-rule="evenodd" d="M28.1545 12.7002C28.1851 12.978 28.2013 13.2541 28.2013 13.527C28.2013 13.7014 28.1883 13.8714 28.1659 14.0383L28.1682 13.9884C27.8682 17.1481 20.773 19.5608 16.956 19.7555C13.7698 19.9182 7.40608 16.8423 6.33607 13.9884C6.33806 14.0476 6.34145 14.1066 6.34443 14.1656C6.28992 13.9142 6.25977 13.6554 6.25977 13.3882C6.25977 13.1754 6.27051 12.9611 6.2907 12.7456L6.30732 12.6995C8.79467 15.9065 12.8751 17.8187 17.2313 17.8187C21.587 17.8187 25.6672 15.9066 28.1545 12.7002Z" fill="#000072"/>
</g>
</g>
<path fill-rule="evenodd" clip-rule="evenodd" d="M13.5246 11.1864C13.1849 11.0506 12.8372 10.823 12.4819 10.504C11.8659 10.5291 11.373 11.1192 11.373 11.8434C11.373 12.5835 11.8877 13.1836 12.5224 13.1836C13.1573 13.1836 13.672 12.5835 13.672 11.8434C13.672 11.6047 13.6184 11.3806 13.5246 11.1864Z" fill="#000072"/>
<path d="M23.173 9.92604C22.7584 10.4199 22.3508 10.8018 21.9502 11.0718C21.3609 11.4688 20.723 11.5384 20.6523 11.101C20.9694 11.0685 21.2997 10.9363 21.6433 10.7049C22.4901 10.1341 22.7548 9.76669 23.173 9.92604Z" fill="#000072"/>
<path fill-rule="evenodd" clip-rule="evenodd" d="M21.2392 11.1864C21.5788 11.0506 21.9266 10.823 22.282 10.504C22.898 10.5291 23.3907 11.1192 23.3907 11.8434C23.3907 12.5835 22.8762 13.1836 22.2413 13.1836C21.6064 13.1836 21.0918 12.5835 21.0918 11.8434C21.0918 11.6047 21.1453 11.3806 21.2392 11.1864" fill="#000072"/>
<path fill-rule="evenodd" clip-rule="evenodd" d="M21.7633 11.5037C21.5768 11.5037 21.4258 11.648 21.4258 11.826C21.4258 12.0041 21.5768 12.1484 21.7633 12.1484C21.9496 12.1484 22.1007 12.0041 22.1007 11.826C22.1007 11.648 21.9496 11.5037 21.7633 11.5037Z" fill="white"/>
<path fill-rule="evenodd" clip-rule="evenodd" d="M17.2345 12.0797C18.0565 12.0797 18.7229 12.4781 18.7229 12.9695C18.7229 13.461 18.0565 13.8594 17.2345 13.8594C16.4124 13.8594 15.7461 13.461 15.7461 12.9695C15.7461 12.4781 16.4124 12.0797 17.2345 12.0797Z" fill="#000072"/>
<path d="M18.6551 14.9492C18.1312 14.9492 17.6245 14.7745 17.2356 14.4623C16.8013 14.817 16.2027 14.9819 15.6143 14.8981C14.9307 14.8007 14.3511 14.3805 14.1013 13.8016C14.0502 13.683 14.1159 13.5497 14.2482 13.5038C14.3804 13.458 14.5291 13.5169 14.5803 13.6355C14.7642 14.062 15.1913 14.3715 15.6949 14.4433C16.1987 14.5151 16.7116 14.3396 17.034 13.9854C17.0821 13.9325 17.154 13.9015 17.2301 13.9008C17.3068 13.9008 17.3787 13.9296 17.4282 13.9815C17.7644 14.3349 18.2723 14.5226 18.7891 14.4837C19.3052 14.4449 19.7719 14.1837 20.0377 13.7851C20.1104 13.6759 20.2683 13.6403 20.3898 13.7056C20.5115 13.7708 20.5512 13.9122 20.4784 14.0213C20.128 14.547 19.5126 14.8914 18.8321 14.9426C18.773 14.947 18.7139 14.9492 18.6551 14.9492Z" fill="#000072"/>
<path fill-rule="evenodd" clip-rule="evenodd" d="M17.2336 14.1313C17.7688 14.5875 18.2946 14.7816 18.8112 14.7134C18.939 17.7206 15.5395 17.5981 15.6552 14.6709C16.2885 14.743 16.8145 14.5632 17.2336 14.1313Z" fill="#000072"/>
<path d="M15.9118 14.9177C15.9372 15.6839 16.2403 16.2863 16.745 16.5543C17.0785 16.7313 17.4553 16.7338 17.7789 16.561C18.2621 16.3029 18.54 15.7252 18.5579 14.9571C18.121 14.9446 17.6821 14.775 17.2475 14.4508C16.8733 14.7613 16.4297 14.9177 15.9234 14.9177C15.9196 14.9177 15.9157 14.9177 15.9118 14.9177ZM17.2727 17.1484C17.003 17.1485 16.7318 17.0825 16.4834 16.9506C15.7525 16.5625 15.3574 15.7289 15.3995 14.6637L15.4095 14.4117L15.6884 14.4435C16.2367 14.5058 16.6784 14.3545 17.0407 13.9811L17.2168 13.7996L17.4113 13.9653C17.8907 14.3739 18.3371 14.5445 18.7747 14.4865L19.0578 14.4492L19.0686 14.7056C19.1136 15.7635 18.7392 16.584 18.0417 16.9566C17.8022 17.0845 17.5381 17.1484 17.2727 17.1484Z" fill="#000072"/>
<path fill-rule="evenodd" clip-rule="evenodd" d="M17.2623 15.7943C16.8052 15.7943 16.3759 15.9905 16.1074 16.322C16.7254 17.1113 17.8212 17.1242 18.4116 16.3153C18.1428 15.9879 17.7161 15.7943 17.2623 15.7943Z" fill="#FF0066"/>
<path d="M16.437 16.3275C16.675 16.5628 16.9744 16.6904 17.285 16.6878C17.5853 16.6834 17.8623 16.5564 18.0802 16.3263C17.863 16.1352 17.5675 16.0248 17.2594 16.0248C16.95 16.0248 16.6542 16.1356 16.437 16.3275ZM17.2691 17.1484C16.7403 17.1484 16.2404 16.8965 15.8944 16.4546L15.7891 16.32L15.8968 16.187C16.2125 15.7971 16.7219 15.5643 17.2594 15.5643C17.7925 15.5643 18.2994 15.7941 18.6154 16.179L18.7211 16.3078L18.6235 16.4417C18.3013 16.8831 17.8165 17.1406 17.2934 17.1482C17.2853 17.1484 17.2771 17.1484 17.2691 17.1484Z" fill="#000072"/>
<path fill-rule="evenodd" clip-rule="evenodd" d="M26.9504 8.70898C25.3015 6.2655 23.3246 4.61117 21.0195 3.74626C25.5411 -1.93557 27.5181 -0.281332 26.9504 8.70898Z" fill="#FF850B"/>
<path d="M21.4151 3.65035C23.4387 4.47861 25.225 5.93046 26.7363 7.97445C27.0121 2.43484 26.1742 0.960597 25.4035 0.717505C24.8152 0.53212 23.649 0.900775 21.4151 3.65035ZM27.1612 9.46484L26.7321 8.82894C25.1196 6.43938 23.1647 4.80103 20.9218 3.95941L20.625 3.84805L20.8119 3.61324C22.8802 1.01423 24.4374 -0.0754749 25.5738 0.283107C27.0234 0.740367 27.5427 3.42212 27.2081 8.72275L27.1612 9.46484Z" fill="#000072"/>
<path fill-rule="evenodd" clip-rule="evenodd" d="M20.6291 9.00635C21.0094 8.86653 21.3928 8.91721 21.4853 9.11959C21.5778 9.32197 21.3445 9.59947 20.9643 9.73939C20.584 9.8792 20.2007 9.82844 20.1081 9.62606C20.0156 9.42368 20.2489 9.14618 20.6291 9.00635Z" fill="white"/>
<path fill-rule="evenodd" clip-rule="evenodd" d="M14.0014 8.99275C13.6212 8.85283 13.2378 8.90361 13.1453 9.10597C13.0527 9.30836 13.286 9.58587 13.6662 9.72568C14.0464 9.86551 14.4298 9.81482 14.5223 9.61246C14.6149 9.41008 14.3816 9.13256 14.0014 8.99275Z" fill="white"/>
<path fill-rule="evenodd" clip-rule="evenodd" d="M12.693 11.5037C12.5065 11.5037 12.3555 11.648 12.3555 11.826C12.3555 12.0041 12.5065 12.1484 12.693 12.1484C12.8793 12.1484 13.0304 12.0041 13.0304 11.826C13.0304 11.648 12.8793 11.5037 12.693 11.5037Z" fill="white"/>
<path fill-rule="evenodd" clip-rule="evenodd" d="M7.68484 8.82617C9.33362 6.38259 11.3105 4.72836 13.6156 3.86336C9.09404 -1.81847 7.11711 -0.164143 7.68484 8.82617Z" fill="#FF850B"/>
<path d="M9.50705 0.794257C9.40385 0.794257 9.31279 0.809238 9.23248 0.834586C8.46176 1.07769 7.6239 2.5519 7.89965 8.09151C9.41083 6.04758 11.1971 4.59574 13.2208 3.76739C11.2919 1.39332 10.159 0.794257 9.50705 0.794257ZM7.47479 9.58203L7.4279 8.83986C7.09319 3.5392 7.61246 0.857461 9.06209 0.400163C10.1978 0.0420166 11.7555 1.13109 13.824 3.73027L14.0109 3.96509L13.7141 4.07644C11.4711 4.91815 9.51619 6.55654 7.9039 8.94606L7.47479 9.58203Z" fill="#000072"/>
<g opacity="0.649994">
<g opacity="0.649994">
<path opacity="0.649994" fill-rule="evenodd" clip-rule="evenodd" d="M13.0444 4.09375C13.2309 4.01103 13.4199 3.93384 13.611 3.86201C10.8086 0.340535 8.98424 -0.361622 8.13672 1.75271C9.03927 0.265938 10.675 1.04618 13.0441 4.09357L13.0444 4.09375Z" fill="white"/>
</g>
</g>
<path fill-rule="evenodd" clip-rule="evenodd" d="M8.91873 7.16992C9.72248 6.27843 10.6334 5.50675 11.6516 4.85511C9.36916 0.869276 8.45815 1.64085 8.91873 7.16992Z" fill="#000072"/>
<path d="M9.50734 2.58002C9.49611 2.58002 9.48843 2.58137 9.48396 2.58249C9.45647 2.58944 9.21254 2.67958 9.10815 3.69471C9.03782 4.37869 9.04613 5.3499 9.13257 6.58691C9.79621 5.91358 10.5304 5.30933 11.3232 4.78426C10.1223 2.72575 9.62407 2.58002 9.50734 2.58002ZM8.71218 7.76562L8.66396 7.18615C8.31349 2.97887 8.81141 2.27394 9.34476 2.13924C9.98258 1.97777 10.7414 2.75857 11.8812 4.749L11.9826 4.92603L11.8019 5.04161C10.8078 5.67786 9.90532 6.44232 9.1196 7.31377L8.71218 7.76562Z" fill="#000072"/>
<g opacity="0.300003">
<g opacity="0.300003">
<path opacity="0.300003" fill-rule="evenodd" clip-rule="evenodd" d="M9.21348 2.48341C8.38058 3.042 7.84259 4.55329 7.59961 7.01713C7.61424 7.58293 7.64181 8.18586 7.6822 8.82617C7.80538 8.6264 7.93562 8.42893 8.07323 8.23458L8.06359 8.28304C8.72892 7.37297 9.44462 6.584 10.2104 5.91602C9.76261 6.2948 9.34063 6.70259 8.94444 7.13928C8.93667 7.14784 8.92891 7.15632 8.92115 7.16506C8.92045 7.16577 8.91976 7.16658 8.91896 7.16756C8.91826 7.16828 8.91768 7.169 8.91696 7.1697C8.6938 4.49075 8.7927 2.92868 9.21348 2.48341ZM25.4183 2.36697C26.2513 2.92564 26.7893 4.43685 27.0322 6.90067C27.0176 7.46648 26.99 8.0695 26.9497 8.70973C26.8264 8.50994 26.6962 8.31256 26.5586 8.11813L26.5682 8.16659C25.903 7.25653 25.1873 6.46755 24.4214 5.79967C24.8693 6.17845 25.2912 6.58623 25.6874 7.02292C25.6951 7.0314 25.7029 7.03996 25.7107 7.04863C25.7114 7.04942 25.7121 7.05023 25.7128 7.05111C25.7136 7.05192 25.7141 7.05255 25.7148 7.05335C25.9381 4.37439 25.8391 2.81223 25.4183 2.36697" fill="#000072"/>
</g>
</g>
<g opacity="0.649994">
<g opacity="0.649994">
<path opacity="0.649994" fill-rule="evenodd" clip-rule="evenodd" d="M21.5842 3.97852C21.3977 3.89579 21.2087 3.81861 21.0176 3.74687C23.8199 0.225385 25.6444 -0.476863 26.492 1.63747C25.5894 0.150698 23.9536 0.931017 21.5845 3.97843L21.5842 3.97852Z" fill="white"/>
</g>
</g>
<path fill-rule="evenodd" clip-rule="evenodd" d="M25.7192 7.05273C24.9154 6.16114 24.0045 5.38947 22.9863 4.73782C25.2687 0.751998 26.1798 1.52365 25.7192 7.05273Z" fill="#000072"/>
<path d="M23.3117 4.66888C24.1046 5.19403 24.8389 5.79835 25.5023 6.47158C25.5888 5.23456 25.5971 4.26337 25.5267 3.57937C25.4223 2.56423 25.1785 2.47406 25.151 2.46714C25.1003 2.45453 24.6284 2.41202 23.3117 4.66888ZM25.9226 7.65039L25.5153 7.19847C24.7298 6.32713 23.8274 5.56263 22.833 4.92622L22.6523 4.81064L22.7537 4.63363C23.8934 2.64335 24.6516 1.86258 25.2902 2.0239C25.8235 2.15859 26.3215 2.86352 25.9709 7.07086L25.9226 7.65039Z" fill="#000072"/>
<path d="M9.50715 0.79428C9.40395 0.79428 9.31289 0.809261 9.23258 0.834609C8.46186 1.07771 7.62393 2.55196 7.89968 8.09157C9.41094 6.04761 11.1972 4.59573 13.2209 3.76741C11.2921 1.39334 10.1591 0.79428 9.50715 0.79428ZM7.47475 9.58203L7.42786 8.83989C7.09322 3.53922 7.61256 0.857446 9.06219 0.400186C10.1979 0.0420396 11.7556 1.13112 13.8241 3.7303L14.011 3.96511L13.7142 4.07646C11.4712 4.91818 9.5163 6.55656 7.90387 8.94609L7.47475 9.58203Z" fill="#000072"/>
<path d="M17.4561 3.35314C11.3978 3.35314 6.51939 8.84331 6.51939 13.389C6.51939 14.571 7.11841 15.6825 8.29991 16.6928C10.9316 18.9431 15.7331 20.0415 17.3207 20.0416C17.3643 20.0416 17.4052 20.0408 17.4439 20.0391C18.5941 19.99 21.2439 19.4591 23.5338 18.433C25.5473 17.5307 27.9474 15.9473 27.9474 13.5278C27.9474 8.82259 23.3646 3.35314 17.4561 3.35314ZM17.3272 20.502C15.6242 20.502 10.7161 19.395 7.94559 17.0261C6.65853 15.9255 6.00586 14.7018 6.00586 13.389C6.00586 11.019 7.27205 8.37788 9.39293 6.32395C11.6446 4.14333 14.5835 2.89265 17.4561 2.89265C20.3466 2.89265 23.1332 4.13814 25.3028 6.39969C27.2803 8.46101 28.461 11.1257 28.461 13.5278C28.461 15.6292 26.8365 17.4678 23.7633 18.8449C21.4067 19.901 18.6635 20.448 17.4683 20.4991C17.4242 20.501 17.377 20.502 17.3272 20.502" fill="#000072"/>
<g opacity="0.559998">
<g opacity="0.559998">
<path opacity="0.559998" fill-rule="evenodd" clip-rule="evenodd" d="M17.7226 12.437C17.9471 12.4901 18.1131 12.5868 18.0936 12.6532C18.0742 12.7195 17.8765 12.7303 17.652 12.6772C17.4275 12.6242 17.2613 12.5274 17.2809 12.461C17.3004 12.3947 17.4982 12.3839 17.7226 12.437Z" fill="white"/>
</g>
</g>
<path d="M11.7754 9.92604C12.1901 10.4199 12.5977 10.8018 12.9983 11.0718C13.5877 11.4688 14.2255 11.5384 14.2962 11.101C13.9792 11.0685 13.6488 10.9363 13.3052 10.7049C12.4584 10.1341 12.1936 9.76669 11.7754 9.92604Z" fill="#000072"/>
<path d="M21.4151 3.65035C23.4387 4.47861 25.225 5.93046 26.7363 7.97445C27.0121 2.43484 26.1742 0.960597 25.4035 0.717505C24.8152 0.53212 23.649 0.900775 21.4151 3.65035ZM27.1612 9.46484L26.7321 8.82894C25.1196 6.43938 23.1647 4.80103 20.9218 3.95941L20.625 3.84805L20.8119 3.61324C22.8802 1.01423 24.4374 -0.0754749 25.5738 0.283107C27.0234 0.740367 27.5427 3.42212 27.2081 8.72275L27.1612 9.46484Z" fill="#000072"/>
</svg>
