<svg width="644" height="606" viewBox="0 0 644 606" fill="none" xmlns="http://www.w3.org/2000/svg">
<path opacity="0.03" fill-rule="evenodd" clip-rule="evenodd" d="M549.232 69.6757C533.047 85.6737 516.789 101.634 500.356 117.849C522.053 133.772 534.757 155.424 549.874 175.488C561.324 190.644 573.872 205.129 585.778 220.012C588.285 223.113 590.855 223.293 594.72 222.158C609.433 217.79 624.23 213.715 639.037 209.649C640.498 209.242 642.27 209.762 643.876 209.866L644 211.663C642.363 212.211 640.705 212.835 639.057 213.308C623.94 217.62 608.863 222.064 593.621 226.101C589.145 227.292 587.187 229.164 586.213 233.353C578.1 269.235 582.286 304.512 591.093 339.827C593.621 350.019 597.611 356.08 610.304 356.704C619.049 357.101 627.649 359.683 636.291 361.299C636.457 361.838 636.612 362.377 636.736 362.935C635.317 363.38 633.763 364.325 632.467 364.108C621.759 362.35 611.085 360.424 600.45 358.33C596.564 357.565 593.507 358.066 590.212 360.203C567.645 374.877 551.822 394.373 539.761 416.394C531.71 431.05 525.027 446.272 517.722 461.221C516.707 463.32 515.515 465.353 514.178 467.906C530.353 481.181 546.859 494.72 563.396 508.26C561.49 512.231 559.656 510.463 557.604 508.799C545.056 498.54 532.467 488.348 519.96 478.089C509.453 469.504 509.495 469.485 496.812 475.593C479.591 483.904 462.225 491.941 445.221 500.564C430.767 507.853 418.167 517.167 407.784 528.872C405.619 531.331 405.09 533.326 406.365 536.427C413.079 552.5 419.524 568.659 426.031 584.78C426.156 585.092 426.394 585.385 426.436 585.726C426.601 587.74 426.715 589.801 426.84 591.834C425.399 590.274 423.42 588.931 422.695 587.163C415.883 571.128 409.313 555.009 402.987 538.81C401.505 535.009 399.505 533.855 395.112 533.902C365.892 534.139 337.615 539.793 309.307 545.523C293.671 548.69 278.015 552.047 262.389 555.176C259.208 555.791 257.851 557.096 257.125 559.904C253.623 573.415 249.883 586.841 246.225 600.296C245.738 602.026 245.22 603.747 244.774 605.383C240.029 605.723 241.117 603.416 241.718 601.251C245.696 586.51 249.841 571.808 253.416 556.954C254.266 553.55 254.027 549.361 252.608 546.118C239.697 516.316 213.969 501.377 179.661 496.791C167.238 495.136 154.731 494.077 142.307 492.536C138.971 492.092 136.919 492.943 134.712 495.136C120.005 509.728 105.208 524.245 90.3229 538.687C89.152 539.764 87.1833 540.19 85.6187 540.918C85.2146 540.36 84.769 539.821 84.3649 539.263C101.296 522.566 118.258 505.877 135.676 488.688C132.184 485.01 128.879 481.332 125.314 477.871C113.253 466.487 100.871 455.406 89.0484 443.795C70.5942 425.67 64.4394 415.912 51.2593 386.081C48.8036 386.724 46.2339 387.339 43.7056 388.067C31.0436 391.66 18.3713 395.319 5.70929 398.798C4.10323 399.262 2.13451 398.761 0.36266 398.685C1.8133 397.607 3.09815 396.066 4.74566 395.555C18.4127 391.48 32.0902 387.481 45.8816 383.736C49.705 382.715 51.4769 380.871 52.4716 377.468C59.5486 353.726 58.1809 330.003 52.3162 306.394C48.4202 290.764 43.5916 275.353 38.8045 259.941C38.2865 258.333 35.551 256.546 33.4786 256.13C22.5678 253.814 11.5015 251.951 0.486999 249.928L0 248.311C1.40919 247.895 2.93236 246.949 4.22757 247.139C12.2268 248.387 20.226 249.597 28.1113 251.393C33.0227 252.528 36.1105 251.686 39.8096 248.273C59.673 229.836 75.1534 208.978 85.3286 185.037C93.2138 166.524 97.5139 147.34 98.7988 127.635C98.9127 125.395 97.545 122.501 95.7835 120.847C84.3649 110.077 72.6251 99.5633 60.8335 88.8128C62.1598 86.0425 63.8073 87.2149 65.8175 88.9925C76.9563 98.8825 88.0951 108.791 99.3894 118.511C100.757 119.684 103.254 120.828 104.933 120.544C143.934 113.888 180.252 101.7 210.757 78.1286C215.782 74.2614 220.207 69.7608 224.994 65.6762C227.605 63.4731 227.926 61.2134 226.921 58.1405C221.616 41.4995 216.559 24.7734 211.399 8.0757C211.161 7.30038 210.715 6.47779 210.757 5.69302C210.809 4.11401 211.088 2.55392 211.285 0.984375C212.363 2.15681 214.062 3.18741 214.508 4.53004C218.207 15.9423 221.699 27.4019 225.284 38.8142C227.056 44.5346 229.066 50.2265 230.558 55.9847C231.397 59.3034 233.408 60.8824 236.785 62.1116C269.715 74.0439 303.37 74.1858 337.46 67.4537C346.464 65.6762 355.313 63.18 364.234 61.2134C367.571 60.4948 369.032 59.0198 369.778 56.0036C373.881 39.5896 378.191 23.2228 382.523 6.85599C382.927 5.49446 384.222 4.32203 385.092 3.07395C385.735 3.32924 386.346 3.60344 386.999 3.87764C386.792 5.25808 386.678 6.66689 386.356 8.01897C382.367 23.6104 378.285 39.1641 374.534 54.8406C374.088 56.8168 374.772 59.8424 376.254 61.2985C408.064 92.1977 447.47 109.917 493.994 114.975C495.838 115.174 498.532 113.916 499.9 112.592C514.448 98.5421 528.84 84.3406 543.274 70.2335C544.818 68.7585 546.372 65.8747 549.273 69.6757H549.232ZM138.629 485.795C146.514 478.07 154.027 470.837 161.269 463.396C162.233 462.403 162.399 459.982 161.756 458.659C158.898 452.218 155.773 445.879 152.389 439.654C139.044 415.175 121.097 393.901 96.8611 377.118C95.1722 375.964 92.6853 374.385 91.1518 374.792C79.3706 377.789 67.6619 381.25 55.7666 384.616C61.1962 402.42 69.9207 418.021 82.8625 431.305C100.799 449.695 119.657 467.319 138.629 485.795ZM583.571 225.127C571.344 209.611 559.49 194.729 547.916 179.629C537.813 166.458 528.488 152.777 518.002 139.804C512.375 132.817 505.091 126.889 498.087 120.052C489.082 128.893 480.969 136.731 473.115 144.815C472.286 145.695 472.732 148.229 473.498 149.581C478.804 158.828 484.026 168.122 489.808 177.142C503.868 198.993 521.659 217.998 544.849 232.634C546.362 233.589 548.672 234.762 550.154 234.374C561.448 231.471 572.649 228.209 583.571 225.127ZM259.457 551.924C306.375 543.452 351.22 530.319 399.423 530.13C395.599 520.712 392.221 511.891 388.315 503.192C387.177 501.074 385.193 499.433 382.771 498.606C369.861 494.862 356.567 495.013 343.324 496.923C317.949 500.592 294.552 509.726 270.917 518.122C270.197 518.405 269.549 518.822 269.016 519.346C268.482 519.87 268.075 520.49 267.819 521.166C264.969 531.066 262.4 540.994 259.457 551.924ZM40.6178 252.594C41.9856 253.313 42.5451 253.785 43.1979 253.918C53.6943 255.884 64.1285 257.861 74.6767 259.591C76.0445 259.808 78.1168 258.872 79.2151 257.898C111.067 229.722 127.552 195.325 130.879 155.641C130.961 154.214 131.158 152.209 130.278 151.406C121.75 143.529 112.994 135.861 103.379 127.314C99.0371 176.471 79.3809 218.282 40.5868 252.594H40.6178ZM106.974 124.156C115.543 132.098 123.656 139.71 131.987 147.16C132.909 148.002 135.085 148.295 136.495 148.058C170.875 142.083 202.799 131.238 229.128 109.718C240.184 100.688 240.143 100.641 236.205 88.0848C233.981 80.9929 231.743 73.9047 229.491 66.8203C196.074 99.7618 153.591 115.297 106.974 124.118V124.156ZM94.3432 369.667C106.684 366.169 118.103 363.011 129.449 359.522C130.899 359.087 132.381 356.988 132.671 355.485C133.997 348.497 135.448 341.5 135.811 334.466C136.66 317.73 130.982 301.921 127.169 285.772C124.682 275.353 119.937 269.736 107.513 269.112C99.2339 268.715 91.0689 266.417 82.3029 264.857C83.4531 300.305 96.4363 333.804 94.3432 369.62V369.667ZM582.897 229.155C572.411 232.086 563.003 234.951 553.428 237.315C549.097 238.374 547.315 240.34 546.424 244.264C539.316 275.674 543.17 306.488 551.221 337.302C553.024 344.167 556.195 347.211 563.966 348.043C572.608 348.942 581.125 350.965 589.042 352.355C585.436 331.818 581.25 311.774 578.556 291.559C575.872 271.013 577.872 250.467 582.897 229.155ZM511.215 465.306C529.793 424.195 547.242 383.67 588.969 356.25C577.229 354.085 566.785 352.014 556.247 350.303C554.61 350.029 552.154 350.861 550.828 351.92C543.119 358.047 534.985 363.881 528.218 370.755C514.189 385.032 504.905 401.966 496.75 419.354C492.885 427.504 489.186 435.72 485.28 444.211L511.215 465.306ZM81.8263 260.858C95.2136 263.316 107.44 265.623 119.74 267.647C121.066 267.864 123.076 266.588 124.247 265.519C148.815 243.234 161.922 216.296 164.575 185.208C164.699 183.704 164.533 181.634 163.528 180.66C154.721 172.254 145.716 164.075 136.754 155.84C136.225 156.01 135.666 156.19 135.189 156.37C131.22 196.573 114.6 231.613 81.8263 260.848V260.858ZM367.664 63.927C322.601 76.3132 278.564 81.2109 233.449 64.7023C236.298 74.0061 239.075 82.0051 241.127 90.1649C242.246 94.7128 244.95 96.9537 249.686 98.6178C285.548 111.146 321.099 107.298 356.608 97.4264C357.317 97.1549 357.956 96.7503 358.483 96.2388C359.009 95.7273 359.412 95.1204 359.665 94.4575C362.369 84.7282 364.815 74.9327 367.664 63.927ZM372.285 63.0855C369.591 73.5523 367.104 82.8183 364.897 92.141C364.787 92.896 364.849 93.6636 365.079 94.3957C365.309 95.1279 365.702 95.8088 366.234 96.3958C392.687 122.445 425.368 137.998 464.37 142.868C466.069 143.066 468.514 143.066 469.488 142.168C477.477 134.717 485.176 127.03 493.776 118.634C445.605 112.876 405.515 94.9681 372.285 63.0855ZM468.514 149.032C459.873 157.476 451.739 165.305 443.905 173.323C443.139 174.126 443.48 176.405 444.144 177.634C447.076 183.137 450.174 188.545 453.428 193.944C465.25 213.611 479.923 231.226 500.273 244.557C501.952 245.663 504.438 247.148 506.024 246.741C518.168 243.621 530.146 240.104 543.564 236.303C508.158 213.79 486.564 183.042 468.514 149.032ZM137.645 151.708C143.955 157.466 149.664 162.79 155.498 167.999C167.041 178.268 167.082 178.305 182.915 174.618C207.721 168.803 230.361 159.338 248.815 142.905C251.302 140.665 252.11 138.726 251.022 135.53C248.287 127.843 246.111 120.015 243.666 112.233C242.94 109.85 242.06 107.468 240.972 104.329C212.425 131.455 176.76 144.258 137.645 151.699V151.708ZM542.994 240.359C531.524 243.574 521.276 246.656 510.852 249.294C506.78 250.344 504.946 252.084 504.055 255.884C497.942 282.68 501.485 308.994 509.298 335.043C509.723 336.565 512.272 338.238 514.199 338.673C520.955 340.215 527.856 341.245 534.736 342.493C539.326 343.297 543.865 344.138 549.284 345.093C539.129 310.308 534.29 276.222 542.994 240.331V240.359ZM547.688 348.989C545.73 348.469 544.548 348.072 543.378 347.854C533.969 346.105 524.654 344.176 515.163 342.843C512.469 342.465 508.925 343.079 506.666 344.46C496.139 350.833 487.217 358.955 481.145 368.807C471.25 384.928 462.442 401.569 453.2 417.945C463.22 426.142 472.141 433.413 481.995 441.441C497.662 406.618 512.562 372.324 547.688 348.989ZM97.3688 372.579C130.381 395.253 151.208 424.573 166.005 457.533C166.885 457.297 167.331 457.316 167.528 457.108C172.678 452.163 177.786 447.161 182.884 442.178C191.733 433.423 191.733 433.404 186.303 422.474C175.123 399.98 159.922 380.2 138.07 364.911C136.36 363.71 133.583 362.443 131.853 362.888C120.734 365.724 109.751 369.043 97.3688 372.579ZM358.069 100.887C319.917 111.155 282.729 114.795 244.526 100.594C248.142 112.318 251.364 122.898 254.742 133.431C254.981 134.15 256.027 134.821 256.877 135.162C286.148 146.517 315.814 145.042 345.573 136.92C346.992 136.523 348.951 135.53 349.241 134.481C352.246 123.674 354.981 112.782 358.069 100.887ZM464.95 146.792C444.89 143.823 426.394 139.048 409.049 130.983C391.848 122.946 376.969 112.157 362.949 99.1L354.183 133.129C356.39 135.02 358.473 136.637 360.318 138.358C380.108 156.596 403.971 167.98 431.979 172.292C434.466 172.661 438.175 172.698 439.564 171.413C448.071 163.669 456.101 155.481 464.95 146.792ZM403.06 527.927C413.801 515.647 427.071 505.404 442.123 497.774C458.432 489.407 475.156 481.701 491.683 473.664C496.315 471.432 500.895 469.088 506.013 466.563C497.714 459.793 490.17 453.487 482.399 447.416C481.446 446.632 478.917 446.414 477.747 446.953C460.184 455.321 442.558 463.651 425.192 472.397C413.091 478.418 402.476 486.644 394.003 496.564C392.895 497.907 392.045 500.289 392.605 501.736C395.692 510.189 399.236 518.5 403.07 527.927H403.06ZM141.644 488.253C143.893 488.612 145.105 488.849 146.307 489C158.731 490.503 171.196 491.676 183.557 493.567C216.425 498.587 241.355 513.366 255.188 541.315C255.509 541.949 256.193 542.506 257.084 543.565C259.457 534.791 261.788 526.65 263.798 518.472C264.202 516.987 263.798 515.162 263.239 513.697C254.224 491.061 237.138 475.99 210.601 470.808C196.769 468.114 182.573 466.903 168.543 465.135C167.217 464.965 165.29 465.211 164.523 465.967C156.969 473.106 149.612 480.415 141.644 488.225V488.253ZM42.6487 257.473C55.1967 298.215 69.2265 337.785 55.7148 380.578C67.2163 377.297 77.5469 374.47 87.7635 371.322C88.8826 370.953 89.9706 368.788 89.9706 367.455C90.012 359.711 90.3747 351.91 89.3282 344.242C85.7948 318.269 81.7745 292.334 77.7852 266.389C77.578 265.302 76.1377 263.751 75.0083 263.524C64.6466 261.463 54.1813 259.638 42.6487 257.52V257.473ZM384.999 494.654C380.875 484.509 377.083 474.95 372.98 465.504C372.472 464.313 370.285 463.084 368.773 462.942C360.514 462.242 352.235 461.032 344.081 461.514C326.383 462.535 310.302 469.154 293.619 473.844C282.242 477.058 276.17 482.429 274.958 493.122C274.191 499.987 271.58 506.7 269.611 514.188C281.31 510.227 291.889 506.397 302.665 503.012C324.663 496.12 346.93 490.21 370.731 492.593C375.249 493.028 379.694 493.869 384.999 494.654ZM389.797 495.193C412.665 468.719 447.128 459.273 476.876 442.765C468.152 435.645 459.914 428.837 451.521 422.171C450.63 421.462 448.34 421.188 447.294 421.699C431.119 429.584 414.696 437.148 399.132 445.875C391.807 449.988 385.973 456.333 379.829 461.949C378.616 463.046 378.026 465.674 378.554 467.159C381.901 476.217 385.683 485.142 389.797 495.193ZM266.555 508.695C269.166 498.899 271.663 489.69 274.036 480.443C274.274 479.545 273.922 478.467 273.559 477.54C266.928 459.935 254.898 446.726 234.154 441.933C222.248 439.2 209.907 437.99 197.68 436.411C195.991 436.212 193.577 437.508 192.209 438.756C187.298 443.218 182.656 447.936 177.972 452.588C175.237 455.302 172.584 458.091 169.403 461.325C179.765 462.554 189.059 463.604 198.312 464.776C228.589 468.643 252.193 480.954 264.897 507.003C265.104 507.371 265.591 507.664 266.555 508.695ZM170.533 185.803L168.885 186.579C165.393 218.074 152.079 245.616 126.464 268.942C137.479 270.937 147.395 272.837 157.311 274.445C158.513 274.643 160.409 273.641 161.446 272.724C180.625 255.185 190.925 234.015 193.173 209.658C193.287 208.335 192.852 206.576 191.878 205.659C184.894 198.936 177.693 192.384 170.533 185.803ZM499.485 248.727C471.012 230.11 453.967 205.063 439.294 177.719C432.165 184.669 425.617 190.909 419.4 197.367C418.612 198.208 418.809 200.449 419.441 201.659C422.198 206.869 425.171 212.003 428.27 217.071C437.315 231.802 448.382 245.068 463.582 255.27C465.136 256.329 467.675 257.492 469.291 257.085C479.021 254.655 488.616 251.809 499.485 248.727ZM198.582 205.025C207.431 213.204 215.958 221.137 224.642 228.947C225.45 229.684 227.356 229.864 228.62 229.665C241.21 227.557 253.229 224.011 264.12 217.743C274.481 211.729 274.481 211.748 271.197 200.941L269.673 196.194C267.58 189.443 265.456 182.693 263.322 175.866C240.961 185.141 217.44 190.796 198.582 205.025ZM498.698 252.868C490.336 255.223 481.176 257.671 472.162 260.48C470.701 260.943 469.354 262.938 468.939 264.422C463.23 286.179 465.965 307.604 472.4 328.84C472.665 329.497 473.095 330.088 473.654 330.568C474.213 331.047 474.887 331.401 475.622 331.601C485.072 333.501 494.584 335.137 504.159 336.886C501.755 322.685 498.335 308.984 497.444 295.161C496.532 281.347 498.17 267.363 498.698 252.868ZM504.728 340.857C498.491 339.723 493.559 339.468 489.248 337.87C475.747 332.868 466.421 338.068 458.329 347.098C456.122 349.566 453.386 351.759 451.811 354.473C444.111 368.126 436.567 381.852 429.181 395.65C428.736 396.425 428.943 398.061 429.585 398.6C436.383 404.32 443.325 409.936 450.941 416.139C463.686 388.001 475.788 360.335 504.728 340.857ZM127.293 272.904C136.101 300.929 145.188 328.027 136.619 357.413C141.8 356.005 145.986 354.898 150.131 353.688C169.31 348.185 169.828 347.372 170.201 328.916C170.481 312.312 164.896 296.74 159.985 281.044C159.705 280.09 158.7 278.747 157.778 278.567C147.965 276.629 138.111 274.889 127.293 272.904ZM194.727 430.558C201.566 423.883 207.711 417.992 213.606 411.922C214.047 411.371 214.346 410.736 214.482 410.065C214.618 409.394 214.588 408.704 214.394 408.045C205.307 386.961 192.282 368.258 172.087 354.114C170.926 353.291 168.947 352.336 167.745 352.667C158.492 355.097 149.291 357.81 139.033 360.742C165.694 379.34 182.418 403.081 194.727 430.558ZM265.612 168.652C266.7 168.415 267.549 168.047 268.347 168.113C269.394 168.188 270.482 168.519 271.487 168.898C293.194 177.01 315.109 175.724 337.107 170.023C338.527 169.654 340.485 168.642 340.775 167.602C343.304 158.894 345.469 150.101 348.018 140.23C317.213 148.266 287.371 150.545 256.452 138.802C259.778 149.76 262.638 159.055 265.612 168.652ZM353.23 137.223L345.822 166.004C348.474 167.952 350.66 169.276 352.505 170.94C367.944 184.971 386.367 194.058 408.075 197.613C409.753 197.887 412.323 198.161 413.214 197.338C420.322 190.814 427.14 184.016 434.808 176.518C402.324 171.753 375.891 158.979 353.23 137.223ZM462.391 259.222C439.864 243.81 426.363 223.775 414.789 201.726C405.826 210.528 397.651 218.527 390.056 225.997L397.039 237.844C403.557 248.831 411.162 259.118 422.218 266.956C423.835 268.091 426.695 269.084 428.456 268.63C439.398 265.86 450.205 262.635 462.391 259.222ZM199.152 210.954C198.582 211.228 198.022 211.54 197.463 211.833C194.24 236.104 183.837 257.463 164.171 275.769C176.677 278.047 188.013 280.212 199.432 282.009C200.882 282.226 203.1 280.874 204.301 279.702C216.197 268.214 222.921 254.513 225.129 239.045C225.367 237.4 225.129 235.121 224.041 234.024C215.917 226.195 207.514 218.603 199.193 210.954H199.152ZM370.596 459.245C367.26 450.915 364.4 443.426 361.146 436.089C360.535 434.728 358.338 433.168 356.774 433.092C349.448 432.648 341.739 431.314 334.817 432.837C319.814 436.099 305.255 440.911 290.552 445.166C289.464 445.497 288.055 446.433 287.775 447.331C285.247 456.181 282.916 465.088 280.294 474.723C309.835 464.899 337.864 453.231 370.596 459.245ZM464.919 262.475C454.319 265.444 444.827 268.384 435.129 270.691C430.611 271.75 428.933 273.953 428.166 277.716C425.316 292.249 426.653 306.573 430.653 320.765C430.974 321.976 432.311 323.687 433.481 323.904C444.734 326.155 456.029 328.121 468.172 330.343C462.028 307.717 458.93 285.687 464.919 262.475ZM468.214 334.211C458.64 332.442 450.039 331.402 441.802 329.161C434.31 327.11 429.016 329.18 424.156 333.88C423.14 334.835 422.011 335.714 421.058 336.707C410.8 346.852 405.329 359.314 399.868 371.766C399.505 372.589 399.785 374.206 400.459 374.763C408.313 381.373 416.26 387.849 424.829 394.818C435.17 371.955 444.983 349.793 468.214 334.211ZM171.766 347.486C182.501 344.441 191.909 341.576 201.442 339.156C205.182 338.201 206.747 336.366 207.514 333.133C210.042 322.165 207.192 311.641 205.379 300.862C203.441 289.441 197.784 283.38 184.448 283.162C179.578 283.049 174.719 281.47 169.828 280.628C168.16 280.335 166.471 280.118 164.14 279.768C171.217 302.214 178.335 323.744 171.745 347.486H171.766ZM446.164 417.737C438.984 411.846 432.134 406.117 425.099 400.633C424.311 399.99 421.959 400.245 420.809 400.803C410.997 405.341 400.811 409.464 391.651 414.91C383.175 419.949 375.725 426.407 367.975 432.392C366.887 433.234 365.768 435.182 366.13 436.203C368.98 444.041 372.244 451.766 375.684 460.351C394.335 438.803 421.918 431.012 446.164 417.737ZM218.663 407.109C226.424 399.479 233.542 392.624 240.495 385.561C241.303 384.691 241.541 382.753 241.086 381.656C234.796 366.755 225.781 353.48 211.834 343.24C210.508 342.285 208.384 341.113 207.13 341.444C196.437 344.271 185.858 347.41 174.242 350.747C195.39 365.942 208.736 384.871 218.663 407.109ZM275.517 471.536C275.926 471.364 276.33 471.185 276.73 470.997C278.056 466.232 279.424 461.448 280.626 456.701C281.393 453.704 283.102 450.3 282.253 447.624C277.807 433.678 269.487 421.992 253.198 417.519C243.23 414.768 232.651 413.841 222.32 412.234C221.201 412.045 219.43 412.234 218.746 412.868C212.114 419.146 205.638 425.566 198.198 432.846C231.491 435.248 261.778 440.382 275.517 471.536ZM339.532 173.36C314.871 179.657 291.246 180.348 266.482 171.45L276.978 205.423C280.108 205.555 282.605 205.129 284.615 205.82C298.81 210.755 313.12 210.387 327.554 207.068C329.129 206.699 331.139 205.139 331.543 203.806C334.31 194.086 336.672 184.29 339.491 173.36H339.532ZM409.163 201.641C385.041 197.509 365.27 188.176 348.971 173.086C346.36 170.647 344.475 171.214 343.625 174.476C341.097 184.234 338.568 194.01 336.216 203.03C339.232 204.846 341.988 206.037 344.029 207.796C354.204 216.627 365.985 222.82 379.808 225.647C381.549 225.997 384.243 225.865 385.227 224.91C393.133 217.563 400.728 209.933 409.163 201.641ZM195.028 202.567C212 190.162 232.34 183.562 252.328 176.301C254.897 175.401 257.361 174.271 259.685 172.925C260.648 172.377 261.633 170.76 261.415 169.919C259.001 161.513 256.307 153.183 253.447 143.974C230.372 164.983 201.939 175.053 171.745 180.811C179.465 188.035 187.07 195.117 195.028 202.567ZM420.198 396.548C411.877 389.759 404.23 383.339 396.314 377.212C395.382 376.475 392.895 376.55 391.6 377.118C385.486 379.775 379.176 382.309 373.591 385.76C366.835 389.901 360.639 394.837 354.401 399.611C353.323 400.434 352.318 402.382 352.681 403.365C356.059 412.348 359.727 421.235 363.654 430.955C378.544 413.671 400.324 407.223 420.198 396.548ZM289.184 441.384C312.022 433.82 333.615 425.386 358.38 429.272C354.836 420.545 351.293 412.574 348.402 404.434C347.044 400.585 344.64 399.451 340.413 399.262C325.917 398.6 312.996 403.516 299.961 408.036C299.038 408.357 297.951 409.246 297.754 410.012C294.904 420.157 292.169 430.331 289.184 441.384ZM222.849 408.575C249.986 410.409 273.507 415.808 284.605 441.857C287.506 431.069 289.951 422.02 292.366 412.962C292.49 412.499 292.687 411.884 292.448 411.515C288.998 406.202 286.18 400.302 281.755 395.678C273.113 386.677 260.524 385.939 248.38 384.89C247.499 384.795 246.287 385.608 245.603 386.28C238.371 393.277 231.211 400.358 222.849 408.575ZM369.798 245.928L374.472 251.876C380.585 259.657 386.533 267.543 392.822 275.192C393.817 276.383 396.47 277.593 397.858 277.225C405.267 275.504 412.489 273.263 419.659 271.211C413.628 264.933 407.515 259.43 402.583 253.161C397.589 246.883 393.775 239.877 389.506 233.126C387.849 230.45 386.129 229.826 383.642 232.322C378.969 236.955 374.233 241.579 369.798 245.928ZM427.192 326.722C419.628 325.332 413.556 324.008 407.401 323.243C404.97 322.988 402.516 323.491 400.438 324.67C388.698 332.149 383.839 343.675 378.886 355.087C378.585 355.853 379.124 357.394 379.901 358.009C384.802 362.207 389.838 366.244 395.382 370.755C402.966 354.388 410.012 338.352 427.192 326.722ZM424.726 273.792C417.379 275.863 410.986 277.385 404.873 279.532C403.815 279.962 402.866 280.586 402.083 281.365C401.301 282.144 400.702 283.062 400.324 284.061C397.433 294.499 398.324 304.975 401.174 315.338C401.495 316.454 402.469 318.127 403.422 318.326C410.831 319.905 418.302 321.172 426.549 322.713C422.239 306.233 420.478 290.623 424.726 273.792ZM231.211 238.922L229.315 240.028C226.703 256.357 219.264 270.738 206.477 283.427C214.56 284.931 221.554 286.415 228.631 287.361C230.32 287.578 232.848 286.424 234.06 285.176C241.543 277.675 246.315 268.253 247.727 258.191C247.935 256.868 247.644 255.09 246.764 254.192C241.749 248.973 236.443 243.98 231.211 238.922ZM205.4 287.096C210.301 303.463 215.648 319.149 211.109 336.206C217.989 334.267 223.688 332.452 229.522 331.09C233.387 330.192 234.786 328.188 235.314 324.888C237.086 313.92 233.625 303.68 230.289 293.412C230.009 292.457 228.392 291.36 227.232 291.114C220.393 289.734 213.565 288.561 205.4 287.096ZM245.365 380.824C250.629 375.652 255.177 371.275 259.478 366.84C260.244 366.055 260.731 364.344 260.327 363.417C255.623 352.355 249.188 342.266 238.775 334.645C237.687 333.842 235.677 333.284 234.392 333.624C227.719 335.317 221.129 337.331 213.565 339.496C228.641 350.719 238.288 364.514 245.406 380.824H245.365ZM329.709 211.181C321.482 211.918 313.959 213.308 306.561 213.015C298.924 212.703 291.402 210.632 283.765 209.526C280.387 209.044 278.854 210.916 279.641 213.705C281.517 220.201 283.641 226.659 285.216 231.66C289.236 231.859 292.252 231.528 294.863 232.266C303.381 234.648 312.438 234.939 321.119 233.107C322.539 232.814 324.414 231.415 324.787 230.204C326.621 224.049 328.072 217.752 329.709 211.2V211.181ZM230.568 233.315C236.475 238.875 241.946 244.085 247.572 249.219C248.059 249.616 249.302 249.616 250.111 249.474C260.472 247.753 270.533 245.002 279.144 239.272C280.47 238.411 281.838 236.246 281.558 235.017C279.869 228.512 277.693 222.101 275.445 214.897C262.089 225.004 246.857 230.025 230.568 233.315ZM329.626 229.231C333.004 231.046 335.512 232.445 338.03 233.797C345.231 237.646 352.36 241.579 359.685 245.276C360.877 245.881 363.488 246.08 364.224 245.427C369.685 240.51 374.865 235.339 380.43 229.921C359.499 223.794 356.432 222.29 340.827 210.131C337.812 207.777 335.284 207.815 334.227 211.36C332.299 217.676 330.921 224.115 329.626 229.231ZM391.154 372.844C385.652 368.343 380.999 364.42 376.119 360.666C375.207 359.947 373.228 359.219 372.441 359.598C362.67 364.372 351.8 367.805 344.816 376.276C344.008 377.269 342.713 378.725 343.034 379.567C345.138 385.419 347.583 391.168 350.277 397.862C361.364 385.315 376.762 380.38 391.154 372.844ZM250.587 381.41C270.616 382.696 286.211 388.218 293.93 405.228C296.179 398.95 297.826 392.965 299.401 386.951C299.567 386.346 299.639 385.561 299.318 385.079C297.391 382.252 295.256 379.538 293.371 376.711C287.661 368.202 278.294 366.311 268.243 365.668C267.363 365.611 266.109 366.254 265.435 366.916C260.804 371.322 256.265 375.832 250.587 381.41ZM344.775 395.792C342.506 390.213 340.257 385.372 338.62 380.38C337.449 376.938 335.325 375.132 331.419 375.945C323.378 377.628 315.42 379.557 307.463 381.486C306.54 381.713 305.328 382.583 305.131 383.33C303.162 389.92 301.391 396.557 299.298 404.15C314.529 398.95 328.528 394.25 344.775 395.792ZM389.444 279.796C382.927 270.663 376.616 261.87 370.379 253.067C368.7 250.684 366.41 249.71 364.068 251.743C359.095 256.244 354.494 261.047 350.526 264.952C352.857 267.372 354.65 268.989 356.069 270.842C359.292 275.003 362.183 279.428 365.602 283.446C366.514 284.515 369.187 285.28 370.659 284.912C377.217 283.389 383.652 281.404 389.444 279.796ZM397.92 321.437C390.17 319.99 383.735 318.723 377.259 317.683C376.202 317.494 374.814 318.099 373.798 318.704C365.726 323.583 362.224 331.213 358.919 338.957C358.639 339.619 359.126 340.943 359.727 341.491C364.462 345.519 369.301 349.424 374.637 353.83C380.15 341.595 385.538 330.23 397.92 321.437ZM395.392 317.04V282.17C388.263 284.146 381.486 286.027 374.772 288.003C374.088 288.193 373.239 289.081 373.239 289.686C373.114 296.693 372.959 303.737 373.239 310.752C373.28 311.736 375.508 313.211 376.938 313.542C383.165 314.913 389.527 315.953 395.392 317.04ZM241.075 327.091C262.659 321.862 265.239 325.086 259.643 302.158C259.364 301.042 259.125 299.851 258.524 298.858C257.996 297.922 257.156 296.674 256.193 296.475C249.354 295.048 242.443 293.847 236.122 292.693C237.863 304.616 239.469 315.915 241.075 327.091ZM265.684 360.893C270.026 356.629 274.813 351.948 280.481 346.37C275.859 340.243 271.311 333.965 266.482 327.913C265.56 326.779 263.228 325.569 262.016 325.843C255.385 327.422 248.909 329.455 243.407 331.034C250.888 341.056 258.162 350.776 265.684 360.893ZM323.181 236.747C312.125 238.723 302.147 238.355 292.262 235.565C291.257 235.31 287.641 238.279 287.879 239.253C289.444 245.872 291.702 252.367 294.034 259.837C296.966 256.026 299.546 255.601 303.287 256.811C306.623 257.87 310.53 257.946 314.146 257.832C315.638 257.757 317.876 256.291 318.28 255.062C320.125 249.408 321.409 243.593 323.181 236.747ZM323.14 254.466C326.808 256.159 329.543 257.274 332.072 258.626C335.211 260.338 338.102 262.408 341.356 263.931C342.464 264.47 344.879 264.413 345.645 263.713C350.567 259.307 355.137 254.655 360.017 249.918C354.857 247.734 350.205 246.174 346.049 243.858C341.843 241.551 338.216 238.393 334.185 235.802C331.087 233.835 328.393 234.516 327.43 237.835C325.72 243.725 324.383 249.682 323.14 254.466ZM238.34 289.138C241.272 289.686 245.023 290.424 248.701 291.105C261.653 293.506 263.736 292.447 268.202 281.073C268.72 279.683 269.29 278.246 269.445 276.799C269.57 275.75 269.404 274.322 268.72 273.632C263.653 268.696 258.472 263.912 253.768 259.525C248.463 269.736 243.51 279.163 238.288 289.138H238.34ZM340.05 372.721C350.194 366.831 359.799 361.271 369.798 355.437C365.063 351.589 360.39 347.703 355.53 344.034C354.722 343.41 352.557 343.297 351.707 343.817C346.081 347.164 340.661 350.7 335.273 354.303C334.465 354.842 333.615 356.288 333.854 357.016C335.823 362.406 338.05 367.757 340.05 372.721ZM253.126 253.785C258.172 258.39 263.374 263.184 268.679 267.892C269.207 268.327 270.368 268.63 271.052 268.441C276.481 266.938 281.911 265.453 287.174 263.543C288.262 263.146 289.464 260.905 289.184 259.799C287.62 253.767 285.589 247.819 283.879 242.411C273.518 246.25 263.415 249.994 253.126 253.785ZM299.971 379.652C300.458 379.595 300.893 379.538 301.339 379.463L306.447 360.628C304.395 358.992 302.986 358.217 302.137 357.139C300.769 355.428 299.971 353.272 298.479 351.674C295.101 348.024 287.257 345.821 284.812 347.987C280.025 352.166 275.642 356.733 270.337 361.933C284.574 363.219 294.78 368.211 299.971 379.652ZM334.589 371.066C333.014 367.105 331.491 362.737 329.45 358.576C328.517 356.78 326.269 353.896 325.108 354.076C320.591 354.775 314.011 355.38 312.364 358.075C309.069 363.436 308.499 370.149 306.737 376.607C316.415 374.688 325.264 372.948 334.589 371.066ZM362.297 287.257C358.629 281.99 355.499 277.187 352.039 272.525C349.935 269.623 347.096 268.507 343.925 271.429C340.91 274.256 338.061 277.262 335.201 280.118C337.408 281.442 339.812 282.245 341.024 283.786C347.055 291.53 346.93 291.625 357.116 288.798C358.836 288.297 360.556 287.767 362.297 287.257ZM353.81 336.565C358.753 329.464 363.343 322.845 368.203 315.82C363.53 315.234 357.416 312.738 353.81 314.459C349.376 316.529 346.36 321.872 344.153 326.344C343.511 327.686 347.531 330.967 349.614 333.208C350.919 334.56 352.598 335.629 353.81 336.565ZM269.29 323.592L283.6 343.146C287.174 339.628 290.552 336.262 293.889 333.01C291.36 329.171 289.226 325.54 286.532 322.231C285.61 321.059 283.154 320 281.662 320.255C277.455 320.983 273.352 322.439 269.29 323.592ZM267.114 320.037C268.844 319.593 270.782 319.101 272.668 318.553C282.926 315.631 283.486 314.865 280.709 305.656C280.097 303.68 278.74 300.976 276.968 300.371C272.782 298.943 268.161 298.555 263.612 297.771C264.824 305.325 265.912 312.398 267.114 320.037ZM367.757 311.802V290.027L352.028 294.357C351.945 296.116 351.945 297.402 351.79 298.688C350.64 308.71 350.598 308.71 361.644 310.8C363.613 311.15 365.592 311.452 367.757 311.802ZM316.415 262.465C310.986 261.747 306.24 260.631 301.577 260.773C299.484 260.811 295.629 263.562 295.785 264.753C296.386 269.301 298.313 273.688 299.277 276.809C303.546 276.411 306.634 276.279 309.618 275.721C311.027 275.447 313.089 274.606 313.483 273.594C314.768 270.048 315.451 266.323 316.415 262.465ZM349.749 339.572C338.216 329.814 339.895 326.75 326.352 338.815C327.958 342.616 329.637 346.502 331.294 350.435L349.749 339.572ZM340.661 268.791C336.268 265.954 332.548 262.976 328.238 261C326.538 260.224 322.01 261.094 321.523 262.172C319.751 266.304 319.078 270.814 318.384 273.688C323.088 275.523 326.663 276.884 330.766 278.425L340.661 268.791ZM290.677 342.068C296.552 346.162 301.898 349.859 307.929 354.066C309.172 349.717 310.54 345.103 311.462 341.794C309.048 339.704 307.162 338.569 306.033 336.99C302.934 332.622 300.769 332.291 296.821 336.064C294.583 338.238 292.324 340.432 290.677 342.068ZM274.72 277.773C271.342 284.051 268.73 288.854 265.871 294.13C270.616 294.991 275.238 296.182 279.869 296.409C281.475 296.522 283.807 294.433 284.688 292.835C285.496 291.455 285.454 288.892 284.491 287.682C281.714 284.259 278.294 281.29 274.72 277.773ZM291.36 266.559C285.444 268.535 280.139 270.313 274.792 272.138C274.357 272.781 273.911 273.443 273.424 274.104C276.004 275.721 278.771 277.073 281.02 278.945C287.009 283.995 286.884 284.08 295.495 280.194L291.36 266.559ZM325.699 349.329C324.134 345.462 322.808 342.077 321.316 338.74C321.036 338.125 319.928 337.198 319.472 337.331C318.581 337.567 317.41 338.276 317.171 339.004C315.845 343.042 314.778 347.107 313.472 351.778L325.699 349.329ZM300.727 300.219C305.556 298.243 309.732 295.454 314.281 294.934C318.912 294.442 323.844 296.201 328.642 296.948C318.342 288.495 302.986 290.575 300.727 300.219ZM340.983 293.09L342.174 291.417C338.9 289.062 335.781 286.292 332.051 284.723C330.994 284.278 328.062 287.417 325.575 289.233C328.341 290.348 330.828 290.613 331.439 291.691C334.102 296.485 337.563 294.244 340.983 293.09ZM346.889 312.729C340.941 310.677 338.454 311.651 335.315 316.435C332.465 320.784 336.061 322.108 338.941 324.112C341.708 320.179 344.278 316.454 346.889 312.729ZM302.302 324.235C300.81 322.013 299.888 319.082 297.764 317.825C295.754 316.69 292.459 317.314 288.397 317.078C290.801 320.33 292.179 322.023 293.381 323.81C297.391 329.871 297.515 329.89 302.302 324.235ZM286.822 314.27C290.397 313.192 294.655 313.731 294.096 308.597C293.578 303.481 290.677 301.572 284.967 302.092C285.568 306.015 286.169 309.835 286.822 314.27ZM338.734 298.016C340.288 307.453 340.288 307.453 347.376 307.15C346.847 303.699 346.36 300.286 345.873 296.882C343.469 297.269 341.066 297.657 338.734 298.016ZM312.519 281.366C311.794 280.543 311.068 279.721 310.312 278.927C307.618 280.004 303.877 280.487 302.551 282.34C301.391 284.013 302.831 287.181 303.152 289.696C303.877 289.847 304.644 289.989 305.359 290.121C307.773 287.2 310.146 284.259 312.519 281.366ZM321.699 327.63C322.881 329.578 323.886 331.346 325.057 333.246L334.341 327.384C330.03 320.217 326.145 324.708 321.699 327.63ZM314.488 286.245L316.425 287.975C319.917 286.358 323.461 284.751 326.953 283.115C326.787 282.311 326.59 281.517 326.435 280.714C323.813 280.383 320.601 279.068 318.798 279.976C316.695 281.035 315.845 284.061 314.488 286.245ZM315.203 329.095C312.25 327.961 310.022 327.081 307.286 326.022L303.784 329.578C306.758 331.525 309.338 333.17 311.866 334.825C313.079 332.773 314.249 330.731 315.203 329.095ZM298.645 292.958L297.122 284.373C294.707 285.328 293.018 285.971 290.573 286.926C293.298 288.958 295.184 290.386 298.645 292.958ZM295.464 299.302L296.189 297.761C294.345 296.05 292.49 294.329 290.241 292.202C289.081 294.509 288.314 296.069 287.309 298.016L295.464 299.302Z" fill="white"/>
</svg>
